mtllib blast_door.mtl
o blast_door

v -15.000000 -64.000000 80.000000
v 16.000000 -64.000000 80.000000
v 16.000000 -63.000000 80.000000
v -16.000000 -64.000000 80.000000
v 15.000000 -64.000000 80.000000
v -16.000000 -63.000000 80.000000
v 16.000000 -64.000000 79.000000
v -16.000000 -64.000000 79.000000
v 16.000000 -1.000000 80.000000
v -15.000000 0.000000 80.000000
v 16.000000 0.000000 80.000000
v -16.000000 -1.000000 80.000000
v 16.000000 1.000000 80.000000
v -16.000000 0.000000 80.000000
v 15.000000 0.000000 80.000000
v -16.000000 1.000000 80.000000
v 16.000000 0.000000 79.000000
v -16.000000 0.000000 79.000000
v 16.000000 -64.000000 -79.000000
v -15.000000 -64.000000 -80.000000
v 16.000000 -64.000000 -80.000000
v -16.000000 -64.000000 -79.000000
v 16.000000 -63.000000 -80.000000
v -16.000000 -64.000000 -80.000000
v 15.000000 -64.000000 -80.000000
v -16.000000 -63.000000 -80.000000
v 16.000000 0.000000 -79.000000
v -15.000000 0.000000 -80.000000
v 16.000000 0.000000 -80.000000
v -16.000000 0.000000 -79.000000
v 16.000000 1.000000 -80.000000
v -16.000000 0.000000 -80.000000
v 15.000000 0.000000 -80.000000
v -16.000000 1.000000 -80.000000
v 16.000000 -1.000000 -80.000000
v -16.000000 -1.000000 -80.000000
v 16.000000 63.000000 -80.000000
v -16.000000 63.000000 -80.000000
v 16.000000 64.000000 -79.000000
v -15.000000 64.000000 -80.000000
v 16.000000 64.000000 -80.000000
v -16.000000 64.000000 -79.000000
v -16.000000 64.000000 -80.000000
v 15.000000 64.000000 -80.000000
v -15.000000 64.000000 80.000000
v 16.000000 64.000000 80.000000
v -16.000000 64.000000 80.000000
v 15.000000 64.000000 80.000000
v 16.000000 64.000000 79.000000
v 16.000000 63.000000 80.000000
v -16.000000 64.000000 79.000000
v -16.000000 63.000000 80.000000

vt 0.000000 -0.000000
vt 0.000000 -1.000000
vt -0.006300 -0.492200
vt 0.000000 -0.500000
vt 0.031200 -0.017900
vt -0.468800 -0.017900
vt 0.531200 -0.017900
vt 1.531200 -0.017900
vt -1.968800 -0.017900
vt -0.006300 -0.992200
vt -0.006300 0.007800
vt 3.031200 -0.017900
vt 0.993700 0.007800
vt 0.993700 -0.992200
vt 0.993700 -0.492200
vt 3.031200 -0.732100
vt 1.000000 -0.000000
vt 1.000000 -1.000000
vt 1.000000 -0.500000
vt 0.031200 -0.732100
vt -1.968800 -0.732100
vt 1.531200 -0.732100
vt 0.531200 -0.732100
vt -0.468800 -0.732100

vn 1.000000 -0.000000 -0.000000
vn 1.000000 0.000000 -0.000000
vn -1.000000 0.000000 -0.000000
vn 0.000000 0.000000 1.000000
vn 0.000000 -1.000000 -0.000000
vn 0.000000 1.000000 0.000000
vn 0.000000 0.000000 -1.000000
vn 0.000000 1.000000 -0.000000
vn -0.000000 0.000000 -1.000000
vn -0.000000 -0.000000 1.000000
vn -0.000000 -1.000000 0.000000

g blast_door_01
usemtl C1A1DOOREDGE
f 11/16/2 29/21/2 31/21/2 13/16/2
f 32/9/3 14/12/3 16/12/3 34/9/3
f 14/5/10 11/20/10 13/20/10 16/5/10
f 29/20/9 32/5/9 34/5/9 31/20/9
f 31/21/8 34/9/8 16/12/8 13/16/8
f 14/12/11 32/9/11 29/21/11 11/16/11

g blast_door_02
usemtl C1A1DOOREDGE
f 50/16/2 37/21/2 41/21/2 46/16/2
f 38/9/3 52/12/3 47/12/3 43/9/3
f 37/20/9 38/5/9 43/5/9 41/20/9
f 52/5/10 50/20/10 46/20/10 47/5/10
f 50/16/5 52/12/5 38/9/5 37/21/5
f 43/9/6 47/12/6 46/16/6 41/21/6

g blast_door_03
usemtl C1A1DOOREDGE
f 29/22/1 41/24/1 39/24/1 27/22/1
f 30/8/3 42/6/3 43/6/3 32/8/3
f 42/6/4 30/8/4 27/22/4 39/24/4
f 29/22/9 32/8/9 43/6/9 41/24/9
f 42/7/8 39/23/8 41/23/8 43/7/8
f 32/7/5 29/23/5 27/23/5 30/7/5

g blast_door_04
usemtl LAB1_DOOR2B
f 44/17/3 33/19/3 15/4/3 48/1/3
f 11/4/2 29/19/2 41/17/2 46/1/2
f 11/4/4 46/1/4 48/1/4 15/4/4
f 33/4/7 44/1/7 41/1/7 29/4/7
f 44/17/6 48/1/6 46/1/6 41/17/6
f 15/4/11 33/19/11 29/19/11 11/4/11

g blast_door_05
usemtl LAB1_DOOR2A
f 45/11/1 10/3/1 28/15/1 40/13/1
f 32/15/3 14/3/3 47/11/3 43/13/3
f 32/15/7 43/13/7 40/13/7 28/15/7
f 10/15/4 45/13/4 47/13/4 14/15/4
f 43/14/6 47/10/6 45/10/6 40/14/6
f 14/3/11 32/15/11 28/15/11 10/3/11

g blast_door_06
usemtl C1A1DOOREDGE
f 14/8/3 47/6/3 51/6/3 18/8/3
f 17/22/1 49/24/1 46/24/1 11/22/1
f 49/24/7 17/22/7 18/8/7 51/6/7
f 14/8/10 11/22/10 46/24/10 47/6/10
f 47/7/8 46/23/8 49/23/8 51/7/8
f 18/7/5 17/23/5 11/23/5 14/7/5

g blast_door_07
usemtl C1A1DOOREDGE
f 9/16/2 35/21/2 29/21/2 11/16/2
f 36/9/3 12/12/3 14/12/3 32/9/3
f 35/20/9 36/5/9 32/5/9 29/20/9
f 12/5/10 9/20/10 11/20/10 14/5/10
f 9/16/5 12/12/5 36/9/5 35/21/5
f 32/9/6 14/12/6 11/16/6 29/21/6

g blast_door_08
usemtl C1A1DOOREDGE
f 22/8/3 30/6/3 32/6/3 24/8/3
f 21/22/1 29/24/1 27/24/1 19/22/1
f 19/22/4 27/24/4 30/6/4 22/8/4
f 24/8/7 32/6/7 29/24/7 21/22/7
f 24/7/5 21/23/5 19/23/5 22/7/5
f 30/7/8 27/23/8 29/23/8 32/7/8

g blast_door_09
usemtl LAB1_DOOR2B
f 5/2/3 15/4/3 33/19/3 25/18/3
f 21/18/1 29/19/1 11/4/1 2/2/1
f 25/2/7 33/4/7 29/4/7 21/2/7
f 2/2/4 11/4/4 15/4/4 5/2/4
f 5/1/11 25/17/11 21/17/11 2/1/11
f 33/19/6 15/4/6 11/4/6 29/19/6

g blast_door_10
usemtl LAB1_DOOR2A
f 20/14/1 28/15/1 10/3/1 1/10/1
f 4/10/3 14/3/3 32/15/3 24/14/3
f 1/14/4 10/15/4 14/15/4 4/14/4
f 24/14/7 32/15/7 28/15/7 20/14/7
f 4/10/11 24/14/11 20/14/11 1/10/11
f 32/15/6 14/3/6 10/3/6 28/15/6

g blast_door_11
usemtl C1A1DOOREDGE
f 2/16/2 21/21/2 23/21/2 3/16/2
f 24/9/3 4/12/3 6/12/3 26/9/3
f 4/5/10 2/20/10 3/20/10 6/5/10
f 21/20/9 24/5/9 26/5/9 23/20/9
f 23/21/8 26/9/8 6/12/8 3/16/8
f 4/12/11 24/9/11 21/21/11 2/16/11

g blast_door_12
usemtl C1A1DOOREDGE
f 7/22/1 17/24/1 11/24/1 2/22/1
f 4/8/3 14/6/3 18/6/3 8/8/3
f 8/8/7 18/6/7 17/24/7 7/22/7
f 2/22/4 11/24/4 14/6/4 4/8/4
f 8/7/5 7/23/5 2/23/5 4/7/5
f 14/7/8 11/23/8 17/23/8 18/7/8

