# Blender 5.1.1
# www.blender.org
mtllib crowbar.mtl
o crowbar
v -10.330658 35.275517 0.546149
v -10.330643 35.089870 9.927915
v -10.330658 34.562920 0.221787
v -10.330644 34.319897 9.934019
v -10.330630 35.368191 18.545980
v -10.330631 34.675598 18.221460
v -10.330627 34.509144 21.192873
v -10.330628 34.173607 20.495510
v -10.330627 32.355396 21.989969
v -10.330627 32.350639 21.389988
v -10.330628 30.972347 21.610920
v -10.330629 31.098537 21.129904
v -11.230658 34.562923 0.221789
v -11.230644 34.319897 9.934020
v -11.230658 35.275517 0.546150
v -11.230643 35.089874 9.927917
v -11.230631 34.675598 18.221460
v -11.230630 35.368191 18.545982
v -11.230628 34.173607 20.495512
v -11.230627 34.509144 21.192875
v -11.230627 32.350639 21.389990
v -11.230627 32.355396 21.989969
v -11.230629 31.098539 21.129906
v -11.230628 30.972347 21.610922
v -9.960630 30.345865 20.795858
v -11.600630 30.345867 20.795862
v -11.600629 30.177855 21.047201
v -9.960629 30.177853 21.047199
v -10.010664 35.719036 -4.057512
v -11.550664 35.719040 -4.057510
v -10.010664 36.059029 -4.060207
v -11.550664 36.059029 -4.060205
vn 1.0000 -0.0000 -0.0000
vn -1.0000 -0.0000 -0.0000
vn 0.0002 -0.0079 -1.0000
vn -0.0000 -0.0079 -1.0000
vn -0.0000 0.0271 0.9996
vn -0.0000 -0.0816 -0.9967
vn -0.0002 -0.8375 0.5464
vn -0.0000 -0.8375 0.5464
vn -0.0000 0.9059 -0.4235
vn -0.0000 -0.8486 -0.5291
vn -0.0000 0.8941 0.4479
vn 0.7350 -0.0114 0.6780
vn -0.0000 -0.1964 -0.9805
vn -0.0000 0.2925 0.9563
vn -0.0000 0.1651 0.9863
vn -0.0003 0.1651 0.9863
vn -0.0000 -0.2387 -0.9711
vn -0.0000 -0.0303 0.9995
vn -0.7458 -0.0112 0.6661
vn -0.7458 -0.0113 0.6661
vn -0.6926 0.0056 0.7213
vn -0.6926 0.0057 0.7213
vn -0.5186 0.1743 0.8371
vn -0.5185 0.1744 0.8371
vn -0.3124 0.0774 0.9468
vn -0.3124 0.0775 0.9468
vn 0.5663 0.1680 0.8069
vn 0.5662 0.1681 0.8069
vn 0.5663 0.1681 0.8069
vn 0.2607 0.0788 0.9622
vn 0.2607 0.0789 0.9622
vt 0.333333 0.156250
vt 0.333333 0.531250
vt 0.333333 0.875000
vt 0.333333 0.843750
vt 0.333333 0.968750
vt 0.333333 0.937500
vt 0.333333 1.000000
vt 0.666667 0.968750
vt 0.666667 0.156250
vt 0.666667 0.531250
vt 0.666667 0.843750
vt 0.666667 0.937500
vt 0.666667 1.000000
vt 1.000000 0.937500
vt 1.000000 0.968750
vt 0.000000 0.000000
vt 0.666667 0.000000
s 1
usemtl crowbar.bmp
f 1/1/1 2/2/1 3/1/1
f 3/1/1 2/2/1 4/2/1
f 2/2/1 5/3/1 4/2/1
f 4/2/1 5/3/1 6/4/1
f 5/3/1 7/5/1 6/4/1
f 6/4/1 7/5/1 8/6/1
f 7/5/1 9/7/1 8/6/1
f 8/6/1 9/7/1 10/5/1
f 9/7/1 11/8/1 10/5/1
f 10/5/1 11/8/1 12/8/1
f 13/9/2 14/10/2 15/1/2
f 15/1/2 14/10/2 16/10/2
f 14/10/2 17/11/2 16/10/2
f 16/10/2 17/11/2 18/3/2
f 17/11/2 19/12/2 18/3/2
f 18/3/2 19/12/2 20/8/2
f 19/12/2 21/8/2 20/8/2
f 20/8/2 21/8/2 22/13/2
f 21/8/2 23/8/2 22/13/2
f 22/13/2 23/8/2 24/8/2
f 8/6/3 10/5/4 19/12/4
f 19/12/4 10/5/4 21/8/4
f 10/5/4 12/8/4 21/8/4
f 21/8/4 12/8/4 23/8/4
f 12/8/4 25/6/4 23/8/4
f 23/8/4 25/6/4 26/14/4
f 20/8/5 22/13/5 7/5/5
f 7/5/5 22/13/5 9/7/5
f 22/13/5 24/8/5 9/7/5
f 9/7/5 24/8/5 11/8/5
f 27/15/6 26/14/6 28/5/6
f 28/5/6 26/14/6 25/6/6
f 29/16/4 30/17/4 31/16/4
f 31/16/4 30/17/4 32/17/4
f 17/11/7 14/10/8 6/4/8
f 6/4/8 14/10/8 4/2/8
f 5/3/9 2/2/9 18/3/9
f 18/3/9 2/2/9 16/10/9
f 14/10/10 13/9/10 4/2/10
f 4/2/10 13/9/10 3/1/10
f 2/2/11 1/1/11 16/10/11
f 16/10/11 1/1/11 15/1/11
f 3/1/12 29/16/12 1/1/12
f 1/1/12 29/16/12 31/16/12
f 13/9/13 30/17/13 3/1/13
f 3/1/13 30/17/13 29/16/13
f 1/1/14 31/16/14 15/1/14
f 15/1/14 31/16/14 32/17/14
f 18/3/15 20/8/15 5/3/15
f 5/3/15 20/8/15 7/5/16
f 6/4/17 8/6/17 17/11/17
f 17/11/17 8/6/17 19/12/17
f 24/8/18 27/15/18 11/8/18
f 11/8/18 27/15/18 28/5/18
f 32/17/19 13/9/19 15/1/20
f 13/9/21 32/17/22 30/17/22
f 26/14/23 24/8/23 23/8/24
f 24/8/25 26/14/26 27/15/26
f 28/5/27 12/8/28 11/8/29
f 12/8/30 28/5/30 25/6/31
