mtllib glass_door.mtl
o glass_door

v -4.000000 -21.919944 24.961813
v -4.000000 -21.919944 24.961569
v 4.000000 -21.919944 24.961813
v 4.000000 -21.919944 24.961569
v -4.000000 56.373025 -43.745462
v -4.000000 57.373025 -43.745462
v 4.000000 56.373025 -43.745462
v 4.000000 57.373025 -43.745462
v -4.000000 5.373025 16.254538
v 4.000000 5.373025 16.254538
v -4.000000 -3.626975 -35.745462
v -4.000000 13.373025 24.254538
v -4.000000 -2.626975 -35.745462
v -4.000000 -14.626975 16.254538
v -4.000000 -5.626975 -35.745462
v 4.000000 -3.626975 -35.745462
v 4.000000 13.373025 24.254538
v 4.000000 -2.626975 -35.745462
v -4.000000 -6.626975 -35.745462
v 4.000000 -14.626975 16.254538
v 4.000000 -5.626975 -35.745462
v 4.000000 -6.626975 -35.745462
v -4.000000 -6.626975 16.254538
v -4.000000 -5.626975 16.254538
v 4.000000 -6.626975 16.254538
v -4.000000 -2.626975 16.254538
v -4.000000 -3.626975 16.254538
v 4.000000 -5.626975 16.254538
v 4.000000 -2.626975 16.254538
v 4.000000 -3.626975 16.254538
v -4.000000 57.373025 32.254538
v -4.000000 56.373025 32.254538
v 4.000000 57.373025 32.254538
v 4.000000 56.373025 32.254538
v -4.000000 50.373025 24.254538
v -4.000000 49.373025 24.254538
v -2.000000 49.373025 23.254538
v 4.000000 50.373025 24.254538
v 2.000000 49.373025 23.254538
v 4.000000 49.373025 24.254538
v -4.000000 50.373025 -35.745462
v 4.000000 50.373025 -35.745462
v -4.000000 49.373025 -35.745462
v -2.000000 49.373025 -34.745462
v 2.000000 49.373025 -34.745462
v 4.000000 49.373025 -35.745462
v -4.000000 -50.626975 -43.745462
v -4.000000 -49.626975 -43.745462
v 4.000000 -50.626975 -43.745462
v 4.000000 -49.626975 -43.745462
v -4.000000 -50.626975 32.254538
v 4.000000 -50.626975 32.254538
v -4.000000 -43.626975 -35.745462
v -4.000000 -42.626975 -35.745462
v -2.000000 -42.626975 -34.745462
v 2.000000 -42.626975 -34.745462
v 4.000000 -43.626975 -35.745462
v 4.000000 -42.626975 -35.745462
v -4.000000 -22.626975 24.254538
v 4.000000 -22.626975 24.254538
v -4.000000 -43.626975 24.254538
v -4.000000 -42.626975 24.254538
v -4.000000 -49.626975 32.254538
v -2.000000 -42.626975 23.254538
v 2.000000 -42.626975 23.254538
v 4.000000 -43.626975 24.254538
v 4.000000 -42.626975 24.254538
v 4.000000 -49.626975 32.254538
v -3.000000 57.373025 -43.745462
v -3.000000 5.373025 16.254538
v -3.000000 13.373025 24.254538
v -3.000000 -2.626975 -35.745462
v -3.000000 -14.626975 16.254538
v -3.000000 -6.626975 -35.745462
v -3.000000 -6.626975 16.254538
v -3.000000 -2.626975 16.254538
v -3.000000 57.373025 32.254538
v -3.000000 49.373025 24.254538
v 1.000000 49.373025 24.254538
v -3.000000 49.373025 -35.745462
v 1.000000 49.373025 -35.745462
v -4.000000 -13.919944 16.961813
v -4.000000 -13.919944 16.961569
v 4.000000 -13.919944 16.961813
v 4.000000 -13.919944 16.961569
v -3.000000 -50.626975 -43.745462
v -3.000000 -50.626975 32.254538
v -3.000000 -42.626975 -35.745462
v 1.000000 -42.626975 -35.745462
v -3.000000 -22.626975 24.254538
v -3.000000 -42.626975 24.254538
v 1.000000 -42.626975 24.254538
v -4.000000 57.373025 -42.745462
v 4.000000 57.373025 -42.745462
v -4.000000 5.373025 17.254538
v 4.000000 5.373025 17.254538
v -4.000000 13.373025 25.254538
v -4.000000 -2.626975 -36.745462
v -4.000000 -14.626975 17.254538
v 4.000000 13.373025 25.254538
v 4.000000 -2.626975 -36.745462
v 4.000000 -14.626975 17.254538
v -4.000000 -6.626975 -36.745462
v 4.000000 -6.626975 -36.745462
v -4.000000 -6.626975 17.254538
v 4.000000 -6.626975 17.254538
v -4.000000 -2.626975 17.254538
v 4.000000 -2.626975 17.254538
v -4.000000 57.373025 31.254538
v 4.000000 57.373025 31.254538
v -4.000000 49.373025 25.254538
v -2.000000 49.373025 24.254538
v -2.000000 48.373025 24.254538
v 2.000000 49.373025 24.254538
v 4.000000 49.373025 25.254538
v 2.000000 48.373025 24.254538
v -2.000000 48.373025 -35.745462
v -4.000000 49.373025 -36.745462
v -2.000000 49.373025 -35.745462
v 2.000000 48.373025 -35.745462
v 2.000000 49.373025 -35.745462
v 4.000000 49.373025 -36.745462
v -4.000000 -50.626975 -42.745462
v 4.000000 -50.626975 -42.745462
v -4.000000 -50.626975 31.254538
v 4.000000 -50.626975 31.254538
v -2.000000 -41.626975 -35.745462
v 2.000000 -41.626975 -35.745462
v -4.000000 -42.626975 -36.745462
v -2.000000 -42.626975 -35.745462
v 2.000000 -42.626975 -35.745462
v 4.000000 -42.626975 -36.745462
v -4.000000 -22.626975 25.254538
v 4.000000 -22.626975 25.254538
v -2.000000 -41.626975 24.254538
v -4.000000 -42.626975 25.254538
v -2.000000 -42.626975 24.254538
v 2.000000 -41.626975 24.254538
v 2.000000 -42.626975 24.254538
v 4.000000 -42.626975 25.254538
v 3.000000 57.373025 -43.745462
v 3.000000 5.373025 16.254538
v 3.000000 13.373025 24.254538
v 3.000000 -2.626975 -35.745462
v 3.000000 -14.626975 16.254538
v 3.000000 -6.626975 -35.745462
v 3.000000 -6.626975 16.254538
v 3.000000 -2.626975 16.254538
v 3.000000 57.373025 32.254538
v -1.000000 49.373025 24.254538
v 3.000000 49.373025 24.254538
v -1.000000 49.373025 -35.745462
v 3.000000 49.373025 -35.745462
v 3.000000 -50.626975 -43.745462
v 3.000000 -50.626975 32.254538
v -1.000000 -42.626975 -35.745462
v 3.000000 -42.626975 -35.745462
v 3.000000 -22.626975 24.254538
v -1.000000 -42.626975 24.254538
v 3.000000 -42.626975 24.254538
v -4.000000 4.665994 16.961813
v -4.000000 4.665994 16.961569
v -4.000000 4.665872 16.961569
v 4.000000 4.665994 16.961813
v 4.000000 4.665994 16.961569
v 4.000000 4.665872 16.961569
v -4.000000 12.665994 24.961813
v -4.000000 12.665994 24.961569
v 4.000000 12.665994 24.961813
v 4.000000 12.665994 24.961569

vt 0.585900 -0.224300
vt 0.648400 -0.224300
vt 0.804700 -0.224300
vt 0.867200 -0.224300
vt 0.585900 -0.224300
vt 0.648400 -0.224300
vt 0.804700 -0.224300
vt 0.867200 -0.224300
vt 0.585900 -0.161800
vt 0.648400 -0.161800
vt 0.804700 -0.161800
vt 0.867200 -0.161800
vt 0.585900 -0.161800
vt 0.648400 -0.161800
vt 0.804700 -0.161800
vt 0.867200 -0.161800
vt -0.031200 -1.062500
vt 0.023400 -0.875000
vt 0.265600 -1.148400
vt 0.343800 -1.148400
vt -0.054700 -0.796900
vt 0.437500 -1.062500
vt 0.757800 -1.179700
vt 0.820300 -1.179700
vt 0.859400 -1.062500
vt 0.890600 -1.062500
vt 0.968800 -1.062500
vt 0.007800 -0.453100
vt 0.070300 -0.632800
vt 0.117200 -0.687500
vt 0.070300 -0.601600
vt -0.257800 -0.750000
vt 0.179700 -0.687500
vt 0.921900 -0.875000
vt -0.179700 -0.671900
vt 0.515600 -0.804700
vt 0.117200 -0.625000
vt 0.210900 -0.687500
vt 1.023400 -0.875000
vt 0.671900 -0.804700
vt 0.273400 -0.687500
vt 0.453100 -0.742200
vt 0.484400 -0.750000
vt 0.179700 -0.625000
vt 0.007800 -0.375000
vt 0.031200 -0.453100
vt 0.210900 -0.625000
vt 0.757800 -0.773400
vt 0.945300 -0.796900
vt 0.820300 -0.773400
vt 1.000000 -0.796900
vt 0.742200 -0.750000
vt 0.734400 -0.742200
vt 0.406200 -0.671900
vt 0.273400 -0.625000
vt -0.226600 -0.562500
vt -0.203100 -0.546900
vt -0.226600 -0.546900
vt 0.265600 -0.562500
vt -0.304700 -0.562500
vt 0.085900 -0.453100
vt 0.820300 -0.671900
vt 0.343800 -0.562500
vt 0.359400 -0.562500
vt 0.664100 -0.632800
vt 0.109400 -0.453100
vt 0.031200 -0.375000
vt 0.437500 -0.562500
vt 0.664100 -0.601600
vt -0.226600 -0.484400
vt 1.070300 -0.632800
vt -0.304700 -0.484400
vt 0.234400 -0.468800
vt 0.695300 -0.562500
vt -0.031200 -0.343800
vt 0.054700 -0.375000
vt 0.671900 -0.546900
vt 0.773400 -0.562500
vt 0.359400 -0.484400
vt 0.695300 -0.546900
vt 1.070300 -0.601600
vt -0.281200 -0.468800
vt -0.304700 -0.468800
vt 0.773400 -0.546900
vt 0.796900 -0.546900
vt 0.125000 -0.414100
vt 0.437500 -0.484400
vt 0.304700 -0.453100
vt 0.085900 -0.375000
vt 0.164100 -0.414100
vt 0.492200 -0.468800
vt 0.109400 -0.375000
vt 0.695300 -0.484400
vt 0.773400 -0.484400
vt 0.695300 -0.468800
vt 0.718800 -0.468800
vt 0.750000 -0.468800
vt -0.304700 -0.414100
vt 0.773400 -0.468800
vt 0.656200 -0.453100
vt 0.234400 -0.390600
vt 0.125000 -0.335900
vt 1.234400 -0.468800
vt 1.007800 -0.453100
vt 1.085900 -0.453100
vt 0.304700 -0.375000
vt 0.164100 -0.335900
vt 0.335900 -0.375000
vt 0.117200 -0.312500
vt 0.671900 -0.414100
vt 0.695300 -0.414100
vt 0.750000 -0.414100
vt 0.492200 -0.390600
vt 0.773400 -0.414100
vt -0.304700 -0.335900
vt 1.125000 -0.414100
vt 0.656200 -0.375000
vt 0.437500 -0.343800
vt 0.273400 -0.312500
vt 1.234400 -0.390600
vt 1.007800 -0.375000
vt 1.085900 -0.375000
vt 0.671900 -0.335900
vt 0.187500 -0.257800
vt 0.695300 -0.335900
vt 0.750000 -0.335900
vt 0.859400 -0.343800
vt 0.773400 -0.335900
vt 0.890600 -0.343800
vt 0.968800 -0.343800
vt 1.125000 -0.335900
vt 0.445300 -0.257800
vt 1.187500 -0.257800
vt -0.304700 -0.210900
vt 0.109400 -0.179700
vt -0.031200 -0.140600
vt 0.585900 -0.218800
vt 0.648400 -0.218800
vt 0.804700 -0.218800
vt 0.867200 -0.218800
vt 0.695300 -0.210900
vt 0.750000 -0.210900
vt 0.523400 -0.179700
vt -0.031200 -0.109400
vt 0.757800 -0.179700
vt 0.265600 -0.148400
vt 0.820300 -0.179700
vt 0.343800 -0.148400
vt -0.226600 -0.132800
vt 1.109400 -0.179700
vt 0.585900 -0.156200
vt 0.648400 -0.156200
vt 0.437500 -0.140600
vt 0.804700 -0.156200
vt 0.867200 -0.156200
vt 0.671900 -0.132800
vt 0.773400 -0.132800
vt 0.968800 -0.140600
vt 0.437500 -0.109400
vt -0.031200 -0.062500
vt 0.968800 -0.109400
vt 0.437500 -0.062500
vt 0.859400 -0.062500
vt 0.890600 -0.062500

vn 1.000000 0.000000 -0.000000
vn -1.000000 0.000000 -0.000000
vn 0.000000 -0.707100 -0.707100
vn 0.000000 0.707100 0.707100
vn 1.000000 -0.000000 -0.000000
vn 0.000000 -0.707200 -0.707000
vn 0.000000 0.707200 0.707000
vn 1.000000 -0.000000 -0.000000
vn -1.000000 -0.000000 -0.000000
vn 0.000000 -0.707100 0.707100
vn 0.000000 0.707100 -0.707100
vn -0.000000 0.707100 -0.707100
vn -0.000000 -0.707100 0.707100
vn -0.000000 -0.707200 0.707000
vn -0.000000 0.707200 -0.707000
vn 1.000000 0.000000 -0.000000
vn -1.000000 0.000000 -0.000000
vn 0.000000 0.000000 1.000000
vn 0.000000 -1.000000 -0.000000
vn 0.000000 1.000000 0.000000
vn 0.000000 0.000000 -1.000000
vn 0.000000 1.000000 -0.000000
vn -0.000000 0.000000 -1.000000
vn -0.000000 -0.000000 1.000000

g glass_door_01
usemtl GLASS_MED
f 130/17/17 137/22/17 112/118/17 119/75/17
f 150/118/8 159/22/8 156/17/8 152/75/8
f 159/22/18 150/118/18 112/118/18 137/22/18
f 130/27/21 119/130/21 152/130/21 156/27/21
f 156/160/19 159/162/19 137/162/19 130/160/19
f 119/75/20 112/118/20 150/118/20 152/75/20

g glass_door_02
usemtl GLASS_MED
f 116/159/16 120/144/16 121/144/16 114/159/16
f 117/136/17 113/153/17 112/153/17 119/136/17
f 120/161/23 117/158/23 119/158/23 121/161/23
f 113/153/24 116/159/24 114/159/24 112/153/24
f 121/144/22 119/136/22 112/153/22 114/159/22
f 117/136/19 120/144/19 116/159/19 113/153/19

g glass_door_03
usemtl GLASS_MED
f 130/136/17 137/153/17 135/153/17 127/136/17
f 139/159/16 131/144/16 128/144/16 138/159/16
f 131/161/23 130/158/23 127/158/23 128/161/23
f 137/153/24 139/159/24 138/159/24 135/153/24
f 130/136/19 131/144/19 139/159/19 137/153/19
f 128/144/22 127/136/22 135/153/22 138/159/22

g glass_door_04
usemtl GLASS_MED
f 65/26/8 39/129/8 114/129/8 139/26/8
f 137/25/17 112/127/17 37/127/17 64/25/17
f 137/25/24 139/26/24 114/129/24 112/127/24
f 39/129/21 65/26/21 64/25/21 37/127/21
f 64/163/19 65/164/19 139/164/19 137/163/19
f 39/129/22 37/127/22 112/127/22 114/129/22

g glass_door_05
usemtl GLASS_MED
f 55/25/17 44/127/17 119/127/17 130/25/17
f 131/26/8 121/129/8 45/129/8 56/26/8
f 131/26/23 130/25/23 119/127/23 121/129/23
f 44/127/18 55/25/18 56/26/18 45/129/18
f 130/163/19 131/164/19 56/164/19 55/163/19
f 121/129/22 119/127/22 44/127/22 45/129/22

g glass_door_06
usemtl GLASS_MED
f 139/22/16 131/17/16 121/75/16 114/118/16
f 81/75/17 89/17/17 92/22/17 79/118/17
f 89/27/21 81/130/21 121/130/21 131/27/21
f 139/22/18 114/118/18 79/118/18 92/22/18
f 131/160/19 139/162/19 92/162/19 89/160/19
f 81/75/20 79/118/20 114/118/20 121/75/20

g glass_door_07
usemtl C1A1W1D
f 43/79/17 36/70/17 35/70/17 41/79/17
f 40/56/16 46/64/16 42/64/16 38/56/16
f 46/64/23 43/79/23 41/79/23 42/64/23
f 36/94/24 40/78/24 38/78/24 35/94/24
f 43/79/19 46/64/19 40/56/19 36/70/19
f 42/64/22 41/79/22 35/70/22 38/56/22

g glass_door_08
usemtl C1A1W1D
f 47/91/17 51/103/17 63/103/17 48/91/17
f 52/120/16 49/113/16 50/113/16 68/120/16
f 49/113/23 47/91/23 48/91/23 50/113/23
f 51/73/24 52/101/24 68/101/24 63/73/24
f 47/91/19 49/113/19 52/120/19 51/103/19
f 50/113/22 48/91/22 63/103/22 68/120/22

g glass_door_09
usemtl C1A1W1D
f 66/20/16 57/63/16 58/63/16 67/20/16
f 53/59/17 61/19/17 62/19/17 54/59/17
f 57/63/23 53/59/23 54/59/23 58/63/23
f 61/146/24 66/148/24 67/148/24 62/146/24
f 58/63/22 54/59/22 62/19/22 67/20/22
f 53/59/19 57/63/19 66/20/19 61/19/19

g glass_door_10
usemtl C1A1W1D
f 30/24/16 16/50/16 18/50/16 29/24/16
f 11/48/17 27/23/17 26/23/17 13/48/17
f 16/50/23 11/48/23 13/48/23 18/50/23
f 27/145/24 30/147/24 29/147/24 26/145/24
f 18/50/22 13/48/22 26/23/22 29/24/22
f 11/48/19 16/50/19 30/24/19 27/23/19

g glass_door_11
usemtl C1A1W1D
f 34/60/16 7/68/16 8/68/16 33/60/16
f 5/87/17 32/72/17 31/72/17 6/87/17
f 7/68/23 5/87/23 6/87/23 8/68/23
f 32/93/24 34/74/24 33/74/24 31/93/24
f 8/68/22 6/87/22 31/72/22 33/60/22
f 5/87/19 7/68/19 34/60/19 32/72/19

g glass_door_12
usemtl C1A1W1D
f 126/46/8 110/105/8 33/105/8 52/46/8
f 51/67/17 31/122/17 109/122/17 125/67/17
f 51/67/24 52/46/24 33/105/24 31/122/24
f 110/105/21 126/46/21 125/67/21 109/122/21
f 125/67/19 126/46/19 52/46/19 51/67/19
f 110/61/22 109/89/22 31/89/22 33/61/22

g glass_door_13
usemtl C1A1W1D
f 99/37/17 105/44/17 23/44/17 14/37/17
f 20/30/8 25/33/8 106/33/8 102/30/8
f 20/30/23 14/37/23 23/44/23 25/33/23
f 105/44/18 99/37/18 102/30/18 106/33/18
f 14/37/19 20/30/19 102/30/19 99/37/19
f 25/33/22 23/44/22 105/44/22 106/33/22

g glass_door_14
usemtl C1A1W1D
f 107/47/17 95/55/17 9/55/17 26/47/17
f 29/38/8 10/41/8 96/41/8 108/38/8
f 29/38/23 26/47/23 9/55/23 10/41/23
f 95/55/18 107/47/18 108/38/18 96/41/18
f 26/47/19 29/38/19 108/38/19 107/47/19
f 10/41/22 9/55/22 95/55/22 96/41/22

g glass_door_15
usemtl C1A1W1D
f 123/115/17 93/126/17 6/126/17 47/115/17
f 49/98/8 8/112/8 94/112/8 124/98/8
f 49/98/23 47/115/23 6/126/23 8/112/23
f 93/126/18 123/115/18 124/98/18 94/112/18
f 47/125/19 49/111/19 124/111/19 123/125/19
f 8/112/22 6/126/22 93/126/22 94/112/22

g glass_door_16
usemtl C1A1W1D
f 136/92/17 133/106/17 59/106/17 62/92/17
f 67/66/8 60/88/8 134/88/8 140/66/8
f 67/66/23 62/92/23 59/106/23 60/88/23
f 133/106/18 136/92/18 140/66/18 134/88/18
f 62/92/19 67/66/19 140/66/19 136/92/19
f 60/88/22 59/106/22 133/106/22 134/88/22

g glass_door_17
usemtl C1A1W1D
f 97/117/17 111/121/17 36/121/17 12/117/17
f 17/100/8 40/104/8 115/104/8 100/100/8
f 17/100/23 12/117/23 36/121/23 40/104/23
f 111/121/18 97/117/18 100/100/18 115/104/18
f 12/117/19 17/100/19 100/100/19 97/117/19
f 40/28/22 36/45/22 111/45/22 115/28/22

g glass_door_18
usemtl C1A1W1D
f 46/54/19 40/35/19 151/35/19 153/54/19
f 141/43/20 149/32/20 33/32/20 8/43/20
f 153/54/3 141/43/3 8/43/3 46/54/3
f 40/62/10 33/52/10 149/52/10 151/62/10
f 33/32/5 40/35/5 46/54/5 8/43/5
f 141/43/2 153/54/2 151/35/2 149/32/2

g glass_door_19
usemtl C1A1W1D
f 154/82/21 141/99/21 8/99/21 49/82/21
f 58/57/18 46/80/18 153/80/18 157/57/18
f 49/96/10 58/85/10 157/85/10 154/96/10
f 46/80/4 8/99/4 141/99/4 153/80/4
f 58/57/1 49/82/1 8/99/1 46/80/1
f 141/99/2 154/82/2 157/57/2 153/80/2

g glass_door_20
usemtl C1A1W1D
f 25/71/16 22/65/16 18/69/16 29/81/16
f 146/65/17 147/71/17 148/81/17 144/69/17
f 25/29/18 29/31/18 148/31/18 147/29/18
f 146/65/21 144/69/21 18/69/21 22/65/21
f 22/65/19 25/71/19 147/71/19 146/65/19
f 144/69/20 148/81/20 29/81/20 18/69/20

g glass_door_21
usemtl C1A1W1D
f 145/40/21 142/36/21 10/36/21 20/40/21
f 60/53/18 17/42/18 143/42/18 158/53/18
f 158/53/3 145/40/3 20/40/3 60/53/3
f 142/36/11 143/42/11 17/42/11 10/36/11
f 60/53/1 20/40/1 10/36/1 17/42/1
f 142/36/2 145/40/2 158/53/2 143/42/2

g glass_door_22
usemtl C1A1W1D
f 160/34/21 151/18/21 40/18/21 67/34/21
f 52/51/18 33/21/18 149/21/18 155/51/18
f 155/51/3 160/34/3 67/34/3 52/51/3
f 151/39/11 149/49/11 33/49/11 40/39/11
f 52/51/1 67/34/1 40/18/1 33/21/1
f 151/18/2 160/34/2 155/51/2 149/21/2

g glass_door_23
usemtl C1A1W1D
f 157/143/20 160/150/20 67/150/20 58/143/20
f 49/132/19 52/133/19 155/133/19 154/132/19
f 52/124/4 67/135/4 160/135/4 155/124/4
f 154/132/11 157/143/11 58/143/11 49/132/11
f 49/132/5 58/143/5 67/150/5 52/133/5
f 155/133/2 160/150/2 157/143/2 154/132/2

g glass_door_24
usemtl C1A1W1D
f 132/114/8 104/116/8 22/116/8 58/114/8
f 54/128/17 19/131/17 103/131/17 129/128/17
f 54/128/24 58/114/24 22/116/24 19/131/24
f 104/116/21 132/114/21 129/128/21 103/131/21
f 129/128/19 132/114/19 58/114/19 54/128/19
f 104/86/22 103/102/22 19/102/22 22/86/22

g glass_door_25
usemtl C1A1W1D
f 101/90/8 122/110/8 46/110/8 18/90/8
f 13/107/17 43/123/17 118/123/17 98/107/17
f 13/107/24 18/90/24 46/110/24 43/123/24
f 122/110/21 101/90/21 98/107/21 118/123/21
f 98/107/19 101/90/19 18/90/19 13/107/19
f 122/110/22 118/123/22 43/123/22 46/110/22

g glass_door_26
usemtl C1A1W1D
f 19/48/17 23/23/17 24/23/17 15/48/17
f 25/24/16 22/50/16 21/50/16 28/24/16
f 22/50/23 19/48/23 15/48/23 21/50/23
f 23/145/24 25/147/24 28/147/24 24/145/24
f 19/48/19 22/50/19 25/24/19 23/23/19
f 21/50/22 15/48/22 24/23/22 28/24/22

g glass_door_27
usemtl C1A1W1D
f 54/143/20 62/150/20 91/150/20 88/143/20
f 86/132/19 87/133/19 51/133/19 47/132/19
f 47/132/11 54/143/11 88/143/11 86/132/11
f 87/124/4 91/135/4 62/135/4 51/124/4
f 51/133/2 62/150/2 54/143/2 47/132/2
f 86/132/5 88/143/5 91/150/5 87/133/5

g glass_door_28
usemtl C1A1W1D
f 87/134/18 77/142/18 31/142/18 51/134/18
f 62/149/21 36/156/21 78/156/21 91/149/21
f 51/141/3 62/157/3 91/157/3 87/141/3
f 36/156/11 31/142/11 77/142/11 78/156/11
f 51/134/2 31/142/2 36/156/2 62/149/2
f 77/142/5 87/134/5 91/149/5 78/156/5

g glass_door_29
usemtl C1A1W1D
f 90/76/18 71/108/18 12/108/18 59/76/18
f 14/109/21 9/119/21 70/119/21 73/109/21
f 59/76/3 14/109/3 73/109/3 90/76/3
f 9/119/11 12/108/11 71/108/11 70/119/11
f 59/76/2 12/108/2 9/119/2 14/109/2
f 71/108/5 90/76/5 73/109/5 70/119/5

g glass_door_30
usemtl C1A1W1D
f 19/65/17 23/71/17 26/81/17 13/69/17
f 75/71/16 74/65/16 72/69/16 76/81/16
f 19/65/21 13/69/21 72/69/21 74/65/21
f 75/29/18 76/31/18 26/31/18 23/29/18
f 74/65/19 75/71/19 23/71/19 19/65/19
f 13/69/20 26/81/20 76/81/20 72/69/20

g glass_door_31
usemtl C1A1W1D
f 88/58/18 80/77/18 43/77/18 54/58/18
f 47/83/21 6/97/21 69/97/21 86/83/21
f 86/95/10 88/84/10 54/84/10 47/95/10
f 80/77/4 69/97/4 6/97/4 43/77/4
f 47/83/2 54/58/2 43/77/2 6/97/2
f 80/77/5 88/58/5 86/83/5 69/97/5

g glass_door_32
usemtl C1A1W1D
f 80/54/19 78/35/19 36/35/19 43/54/19
f 6/43/20 31/32/20 77/32/20 69/43/20
f 78/62/10 77/52/10 31/52/10 36/62/10
f 43/54/3 6/43/3 69/43/3 80/54/3
f 43/54/2 36/35/2 31/32/2 6/43/2
f 77/32/5 78/35/5 80/54/5 69/43/5

g glass_door_33
usemtl C1A1W1D
f 170/2/16 166/10/16 10/152/16 17/138/16
f 163/9/9 168/1/9 12/137/9 9/151/9
f 10/152/12 9/151/12 12/137/12 17/138/12
f 162/9/13 165/10/13 170/2/13 168/1/13
f 164/14/6 161/13/6 9/151/6 10/152/6
f 167/5/7 169/6/7 17/138/7 12/137/7

g glass_door_34
usemtl C1A1W1D
f 60/140/16 20/155/16 85/12/16 4/4/16
f 2/3/9 83/11/9 14/154/9 59/139/9
f 60/140/3 59/139/3 14/154/3 20/155/3
f 2/3/4 4/4/4 85/12/4 83/11/4
f 59/139/14 60/140/14 3/8/14 1/7/14
f 20/155/15 14/154/15 82/15/15 84/16/15

