# J.A.C.K. 1.1.3773 Freeware OBJ file
mtllib tramDoor.mtl
# 274 vertices
v -84.000000 46.000000 -71.000000
v -88.000000 18.000000 -60.000000
v -88.000000 19.000000 -62.000000
v -83.000000 46.000000 -71.000000
v -87.000000 18.000000 -60.000000
v -137.000000 50.000000 -70.670166
v -104.000000 64.000000 -61.000000
v -140.000000 45.918213 -70.000000
v -136.000000 50.000000 -70.670166
v -136.000000 18.000000 -61.729980
v -88.000000 17.725342 -60.961426
v -84.000000 18.000000 -60.000000
v -83.000000 18.000000 -60.000000
v -83.000000 19.000000 -62.000000
v -136.000000 45.918213 -70.000000
v -83.000000 17.725342 -60.961426
v -136.000000 50.000000 -65.000000
v -135.000000 50.000000 -65.000000
v -88.000000 104.000000 -66.330078
v -88.000000 51.000000 -65.000000
v -136.000000 62.000000 -66.430176
v -135.000000 62.000000 -66.430176
v -140.000000 45.725586 -68.961670
v -88.000000 17.000000 -60.000000
v -88.000000 62.000000 -70.000000
v -136.000000 45.725586 -68.961670
v -137.000000 50.000000 -70.669922
v -136.000000 50.000000 -70.669922
v -136.000000 17.000000 -61.729980
v -140.000000 17.725342 -60.961914
v -136.000000 17.725342 -60.961914
v -136.000000 62.000000 -66.429932
v -140.000000 107.000000 -62.000000
v -135.000000 62.000000 -66.429932
v -139.000000 107.000000 -62.000000
v -136.000000 107.000000 -62.000000
v -83.000000 13.326904 -59.054932
v -140.000000 13.000000 -61.000000
v -88.000000 106.917725 -65.000000
v -136.000000 18.000000 -61.729736
v -89.000000 62.000000 -69.689697
v -136.000000 50.000000 -70.669678
v -88.000000 62.000000 -69.689697
v -135.000000 50.000000 -70.669678
v -88.000000 103.097412 -63.385254
v -136.000000 61.000000 -71.000000
v -136.000000 62.000000 -65.000000
v -135.000000 62.000000 -65.000000
v -137.000000 62.000000 -66.429688
v -136.000000 62.000000 -66.429688
v -88.000000 45.725342 -68.961426
v -140.000000 106.918213 -65.000000
v -88.000000 45.918213 -70.000000
v -136.000000 106.918213 -65.000000
v -136.000000 50.000000 -71.000000
v -135.000000 50.000000 -71.000000
v -83.000000 45.725342 -68.961426
v -89.000000 50.000000 -65.000000
v -88.000000 50.000000 -65.000000
v -83.000000 45.918213 -70.000000
v -136.000000 50.000000 -70.669434
v -135.000000 50.000000 -70.669434
v -89.000000 62.000000 -66.430176
v -88.000000 62.000000 -66.430176
v -137.000000 18.000000 -61.670166
v -136.000000 18.000000 -61.670166
v -140.000000 106.917969 -65.000000
v -136.000000 106.917969 -65.000000
v -89.000000 50.000000 -70.669922
v -88.000000 50.000000 -70.669922
v -88.000000 17.725098 -60.961426
v -87.000000 50.000000 -70.669922
v -140.000000 106.000000 -66.000000
v -83.000000 18.327148 -60.784912
v -140.000000 13.316162 -59.051270
v -88.000000 103.096924 -63.385254
v -83.000000 17.725098 -60.961426
v -136.000000 13.316162 -59.051270
v -140.000000 13.000000 -60.000000
v -139.000000 13.000000 -60.000000
v -88.000000 107.000000 -62.000000
v -136.000000 13.000000 -60.000000
v -88.000000 106.918457 -65.000000
v -84.000000 107.000000 -62.000000
v -140.000000 46.316162 -70.051025
v -83.000000 107.000000 -62.000000
v -136.000000 18.326904 -60.784912
v -83.000000 106.918457 -65.000000
v -136.000000 46.316162 -70.051025
v -88.000000 45.725586 -68.961426
v -88.000000 50.000000 -70.670166
v -88.000000 102.917969 -65.333496
v -87.000000 50.000000 -70.670166
v -136.000000 61.000000 -65.000000
v -136.000000 62.000000 -71.000000
v -83.000000 13.000000 -61.000000
v -135.000000 62.000000 -71.000000
v -136.000000 50.000000 -67.610352
v -135.000000 50.000000 -67.610352
v -136.000000 106.917725 -65.000000
v -89.000000 62.000000 -65.000000
v -84.000000 18.000000 -61.729736
v -88.000000 61.000000 -71.000000
v -88.000000 62.000000 -65.000000
v -83.000000 45.725586 -68.961426
v -83.000000 18.000000 -61.729736
v -88.000000 62.000000 -66.429688
v -136.000000 51.000000 -71.000000
v -87.000000 62.000000 -66.429688
v -137.000000 18.000000 -61.669922
v -136.000000 18.000000 -61.669922
v -89.000000 50.000000 -71.000000
v -88.000000 50.000000 -71.000000
v -83.000000 18.326904 -60.785156
v -136.000000 103.000000 -62.389893
v -88.000000 19.000000 -61.729980
v -137.000000 50.000000 -67.610107
v -136.000000 50.000000 -67.610107
v -135.000000 50.000000 -67.610107
v -83.000000 19.000000 -61.729980
v -88.000000 103.096924 -63.385010
v -89.000000 62.000000 -66.429932
v -88.000000 62.000000 -66.429932
v -120.000000 48.000000 -61.000000
v -136.000000 104.000000 -62.389893
v -136.000000 13.326660 -59.054932
v -140.000000 46.315918 -70.051025
v -88.000000 46.306396 -70.047852
v -136.000000 46.315918 -70.051025
v -136.000000 102.917725 -65.333496
v -83.000000 46.306396 -70.047852
v -136.000000 50.000000 -66.000000
v -120.000000 48.000000 -77.000000
v -83.000000 106.000000 -66.000000
v -104.000000 48.000000 -61.000000
v -84.000000 13.000000 -60.000000
v -83.000000 13.000000 -60.000000
v -88.000000 106.918213 -65.000000
v -89.000000 62.000000 -71.000000
v -88.000000 61.000000 -65.000000
v -88.000000 62.000000 -71.000000
v -140.000000 46.316162 -70.051270
v -137.000000 103.000000 -62.389648
v -88.000000 107.097168 -63.000000
v -83.000000 13.326904 -59.055176
v -136.000000 103.000000 -62.389648
v -83.000000 106.918213 -65.000000
v -136.000000 46.316162 -70.051270
v -83.000000 18.326904 -60.784912
v -140.000000 45.725342 -68.961426
v -88.000000 51.000000 -71.000000
v -136.000000 45.725342 -68.961426
v -104.000000 48.000000 -77.000000
v -140.000000 46.000000 -68.000000
v -139.000000 46.000000 -68.000000
v -137.000000 46.000000 -68.000000
v -136.000000 46.000000 -68.000000
v -88.000000 46.306152 -70.047852
v -88.000000 45.918457 -70.000000
v -88.000000 103.000000 -62.389893
v -88.000000 18.305908 -61.047607
v -140.000000 17.725098 -60.961426
v -83.000000 46.306152 -70.047852
v -83.000000 45.918457 -70.000000
v -136.000000 18.327148 -60.784912
v -136.000000 17.725098 -60.961426
v -83.000000 18.305908 -61.047607
v -136.000000 62.000000 -66.000000
v -140.000000 46.097900 -69.000000
v -136.000000 103.096924 -63.385010
v -136.000000 46.097900 -69.000000
v -88.000000 104.000000 -62.389893
v -140.000000 107.097900 -63.000000
v -136.000000 107.097900 -63.000000
v -83.000000 13.326660 -59.054932
v -88.000000 50.000000 -66.000000
v -140.000000 45.725342 -68.961914
v -136.000000 45.725342 -68.961914
v -136.000000 102.917969 -65.333496
v -136.000000 18.326904 -60.785156
v -140.000000 18.000000 -61.000000
v -140.000000 107.097656 -63.000000
v -136.000000 107.097656 -63.000000
v -88.000000 107.096924 -63.000000
v -89.000000 50.000000 -67.610107
v -88.000000 50.000000 -67.610107
v -88.000000 103.000000 -62.389648
v -87.000000 103.000000 -62.389648
v -88.000000 18.000000 -62.000000
v -88.000000 18.000000 -61.729980
v -87.000000 18.000000 -62.000000
v -140.000000 107.000000 -66.000000
v -140.000000 106.000000 -62.000000
v -139.000000 107.000000 -66.000000
v -88.000000 18.306152 -61.047852
v -136.000000 107.000000 -66.000000
v -84.000000 18.000000 -62.000000
v -84.000000 18.000000 -61.729980
v -83.000000 18.000000 -62.000000
v -83.000000 18.000000 -61.729980
v -88.000000 46.000000 -68.000000
v -83.000000 18.306152 -61.047852
v -87.000000 46.000000 -68.000000
v -140.000000 46.097656 -69.000000
v -136.000000 46.097656 -69.000000
v -84.000000 46.000000 -68.000000
v -83.000000 46.000000 -68.000000
v -137.000000 103.000000 -66.330078
v -136.000000 103.000000 -66.330078
v -140.000000 13.316406 -59.051025
v -88.000000 102.917725 -65.333496
v -88.000000 17.000000 -61.729980
v -136.000000 13.316406 -59.051025
v -88.000000 62.000000 -66.000000
v -136.000000 50.000000 -70.000000
v -88.000000 46.097900 -69.000000
v -137.000000 62.000000 -69.689941
v -136.000000 62.000000 -69.689941
v -83.000000 46.097900 -69.000000
v -136.000000 13.326904 -59.055176
v -140.000000 46.000000 -71.000000
v -139.000000 46.000000 -71.000000
v -137.000000 46.000000 -71.000000
v -136.000000 46.000000 -71.000000
v -136.000000 107.097168 -63.000000
v -140.000000 17.725342 -60.961426
v -140.000000 18.000000 -60.000000
v -139.000000 18.000000 -60.000000
v -136.000000 17.725342 -60.961426
v -137.000000 18.000000 -60.000000
v -136.000000 18.000000 -60.000000
v -136.000000 62.000000 -69.689697
v -88.000000 107.097656 -63.000000
v -136.000000 103.097412 -63.385254
v -135.000000 62.000000 -69.689697
v -136.000000 104.000000 -66.330078
v -83.000000 18.000000 -61.000000
v -83.000000 107.097656 -63.000000
v -88.000000 107.000000 -66.000000
v -136.000000 107.096924 -63.000000
v -136.000000 51.000000 -65.000000
v -84.000000 107.000000 -66.000000
v -83.000000 107.000000 -66.000000
v -140.000000 45.918457 -70.000000
v -83.000000 106.000000 -62.000000
v -88.000000 46.097656 -69.000000
v -136.000000 45.918457 -70.000000
v -136.000000 17.000000 -60.000000
v -136.000000 62.000000 -70.000000
v -140.000000 13.315918 -59.051025
v -136.000000 62.000000 -69.689453
v -88.000000 107.097900 -63.000000
v -135.000000 62.000000 -69.689453
v -83.000000 46.097656 -69.000000
v -136.000000 13.315918 -59.051025
v -136.000000 13.326904 -59.054932
v -120.000000 64.000000 -77.000000
v -83.000000 107.097900 -63.000000
v -88.000000 103.000000 -66.330078
v -87.000000 103.000000 -66.330078
v -89.000000 50.000000 -70.669678
v -88.000000 50.000000 -70.669678
v -88.000000 50.000000 -70.000000
v -120.000000 64.000000 -61.000000
v -89.000000 62.000000 -69.689941
v -136.000000 103.096924 -63.385254
v -88.000000 62.000000 -69.689941
v -87.000000 62.000000 -69.689941
v -88.000000 46.000000 -71.000000
v -104.000000 64.000000 -77.000000
v -87.000000 46.000000 -71.000000
v -89.000000 50.000000 -67.610352
v -88.000000 50.000000 -67.610352
v -87.000000 50.000000 -67.610352
# 59 normals
vn 0.0000 -0.9952 -0.0974
vn -1.0000 0.0000 0.0000
vn 1.0000 0.0000 0.0000
vn -0.0000 -0.9520 0.3061
vn 0.0000 -0.0979 0.9952
vn -0.0000 -0.0000 1.0000
vn -0.0000 0.0000 -1.0000
vn -0.0000 -1.0000 0.0000
vn 0.0000 0.0817 -0.9967
vn -0.0000 -0.0970 0.9953
vn 0.0000 0.9615 -0.2747
vn -0.0000 0.0979 -0.9952
vn -0.0000 -0.0979 0.9952
vn 0.0000 -0.0970 0.9953
vn 0.0000 1.0000 -0.0000
vn 0.0000 0.0000 -1.0000
vn 0.0000 -0.3060 -0.9520
vn 0.0000 -0.2747 -0.9615
vn 0.0000 0.3060 0.9520
vn 0.0000 -0.0970 0.9953
vn 0.0000 -0.0981 0.9952
vn -0.0000 -0.9451 0.3267
vn 0.0000 0.9953 0.0972
vn 0.0000 -0.9953 -0.0972
vn -0.0000 0.0822 -0.9966
vn 0.0000 0.3270 0.9450
vn 0.0000 -0.3270 -0.9450
vn -0.0000 -0.9488 0.3159
vn 0.0000 0.3162 0.9487
vn -0.0000 -0.9615 0.2749
vn 0.0000 0.9967 0.0815
vn -1.0000 0.0000 -0.0000
vn 0.0000 -1.0000 -0.0000
vn 0.0000 1.0000 0.0000
vn 0.0000 0.0000 1.0000
vn 0.0000 0.9488 -0.3159
vn 0.0000 0.0979 -0.9952
vn 1.0000 0.0000 -0.0000
vn 0.0000 -0.3161 -0.9487
vn 0.0000 0.9953 0.0967
vn 0.0000 -0.3162 -0.9487
vn -0.0000 -0.0817 0.9967
vn 0.0000 -0.9967 -0.0813
vn 0.0000 0.9967 0.0813
vn 0.0000 0.0822 -0.9966
vn 0.0000 0.9450 -0.3270
vn -1.0000 0.0000 -0.0000
vn 0.0000 -0.9966 -0.0820
vn 0.0000 -0.0814 0.9967
vn 1.0000 0.0000 -0.0000
vn -0.0000 0.0817 -0.9967
vn -0.0000 -0.0817 0.9967
vn 0.0000 0.9519 -0.3063
vn -0.0000 -0.0831 0.9965
vn 0.0000 -0.3269 -0.9450
vn 0.0000 -0.2747 -0.9615
vn 0.0000 0.2747 0.9615
vn 0.0000 0.0817 -0.9967
vn -0.0000 0.0958 -0.9954
# 213 texcoords
vt 0.9861 -0.3080 0.0000
vt 0.8375 0.0781 0.0000
vt 0.4086 -0.7969 0.0000
vt 0.8500 -0.1766 0.0000
vt 0.5250 -0.1172 0.0000
vt 0.5500 -0.4453 0.0000
vt -0.1125 -0.1771 0.0000
vt 0.8834 -0.8906 0.0000
vt 0.5694 -0.6875 0.0000
vt 0.8375 -0.1772 0.0000
vt 0.4875 -0.9219 0.0000
vt 0.8834 -0.8906 0.0000
vt 0.8375 -0.1772 0.0000
vt 0.8451 -0.8906 0.0000
vt 0.8375 0.0806 0.0000
vt 0.8875 -0.1772 0.0000
vt 0.8875 -0.1772 0.0000
vt 0.4875 -0.8906 0.0000
vt 0.5875 -0.1172 0.0000
vt 0.8875 -0.9194 0.0000
vt 0.8375 -0.4460 0.0000
vt 0.4875 -0.4772 0.0000
vt 0.8375 -0.9211 0.0000
vt 0.5047 -0.9062 0.0000
vt 0.8375 -0.1797 0.0000
vt 0.9861 -0.3335 0.0000
vt 0.4931 -0.9062 0.0000
vt 0.8125 -0.7969 0.0000
vt -0.1500 -0.1459 0.0000
vt 0.8375 -0.4445 0.0000
vt 0.8875 -0.1797 0.0000
vt 0.4931 -0.9453 0.0000
vt 0.7750 -0.1406 0.0000
vt 0.4875 -0.4460 0.0000
vt -0.1125 -0.1797 0.0000
vt 0.4875 -0.4445 0.0000
vt 0.5500 -0.1382 0.0000
vt 0.8875 0.0781 0.0000
vt 0.8875 0.0781 0.0000
vt 0.5500 0.0805 0.0000
vt 0.8500 -0.1562 0.0000
vt 0.8711 -0.7969 0.0000
vt -0.1125 -0.4446 0.0000
vt -0.1500 -0.1094 0.0000
vt 0.8500 0.0781 0.0000
vt 0.8375 -0.9225 0.0000
vt 0.8875 -0.1381 0.0000
vt 0.3875 -0.9219 0.0000
vt 0.4875 0.0760 0.0000
vt 0.8375 -0.1406 0.0000
vt 0.5500 -0.1771 0.0000
vt 0.8875 0.0806 0.0000
vt 0.4875 -0.1382 0.0000
vt 0.8125 -0.8906 0.0000
vt 0.3500 -0.4453 0.0000
vt -0.1125 -0.4772 0.0000
vt 0.8875 -0.1406 0.0000
vt 0.4875 0.0805 0.0000
vt 0.8500 -0.1818 0.0000
vt 0.5069 -0.9062 0.0000
vt 0.8304 -0.7969 0.0000
vt 0.5047 -0.9062 0.0000
vt -0.1500 -0.1766 0.0000
vt -0.1125 -0.4758 0.0000
vt 0.8375 -0.4453 0.0000
vt -0.1125 -0.1406 0.0000
vt 0.8500 -0.1953 0.0000
vt -0.0139 -0.3335 0.0000
vt 0.4875 -0.1428 0.0000
vt 0.5500 0.0760 0.0000
vt 0.9028 -0.3412 0.0000
vt 0.8375 -0.9225 0.0000
vt 0.4875 -0.9225 0.0000
vt -0.0139 -0.3080 0.0000
vt 0.4875 -0.9211 0.0000
vt 0.8375 -0.4460 0.0000
vt -0.1125 -0.4453 0.0000
vt 0.4875 -0.4772 0.0000
vt 0.5500 -0.4459 0.0000
vt 0.4875 -0.4758 0.0000
vt 0.4625 -0.9219 0.0000
vt 0.8875 -0.9240 0.0000
vt -0.1625 -0.1797 0.0000
vt 0.8375 -0.3828 0.0000
vt 0.8711 -0.7969 0.0000
vt 0.5500 -0.9225 0.0000
vt -0.1125 -0.4460 0.0000
vt 0.5500 -0.4445 0.0000
vt -0.1125 -0.4766 0.0000
vt 0.8375 -0.1428 0.0000
vt 0.4875 -0.4445 0.0000
vt 0.8875 -0.8906 0.0000
vt 0.8375 -0.9194 0.0000
vt 0.4875 -0.4446 0.0000
vt 0.8500 -0.9219 0.0000
vt 0.8875 -0.4772 0.0000
vt 0.5500 -0.1428 0.0000
vt 0.2708 -0.2765 0.0000
vt -0.1500 -0.1562 0.0000
vt 0.8875 -0.8906 0.0000
vt -0.1125 -0.4446 0.0000
vt 0.8875 -0.1428 0.0000
vt 0.8875 -0.9219 0.0000
vt 0.8375 -0.4141 0.0000
vt 0.4875 -0.9225 0.0000
vt 0.4875 -0.9211 0.0000
vt 0.5486 -0.6875 0.0000
vt 0.8875 -0.9219 0.0000
vt 0.8375 -0.9211 0.0000
vt 0.8875 -0.1771 0.0000
vt 0.8875 -0.4460 0.0000
vt 0.5500 -0.9219 0.0000
vt 0.5500 -0.1381 0.0000
vt 0.4500 -0.1953 0.0000
vt -0.1500 -0.1818 0.0000
vt 0.4875 -0.4766 0.0000
vt 0.4500 -0.1766 0.0000
vt 0.3125 -0.8750 0.0000
vt 0.5500 -0.9195 0.0000
vt 0.5500 -0.9225 0.0000
vt -0.1125 -0.1771 0.0000
vt -0.1500 -0.1953 0.0000
vt 0.8750 -0.3203 0.0000
vt -0.1625 -0.1406 0.0000
vt 0.8375 -0.1772 0.0000
vt 1.3125 -0.8750 0.0000
vt 0.8875 -0.4445 0.0000
vt 0.8875 -0.1772 0.0000
vt 0.9028 -0.3412 0.0000
vt 0.8875 -0.7969 0.0000
vt 0.3666 -0.4766 0.0000
vt 0.4875 -0.4453 0.0000
vt 0.8750 -0.3438 0.0000
vt 0.8304 -0.7969 0.0000
vt 0.4500 -0.1562 0.0000
vt 0.8875 -0.7969 0.0000
vt 0.5500 -0.4460 0.0000
vt -0.1125 -0.1381 0.0000
vt 0.4875 -0.1406 0.0000
vt 0.4500 -0.1459 0.0000
vt 0.5051 -0.9062 0.0000
vt 0.4875 -0.4460 0.0000
vt 0.3125 0.1250 0.0000
vt 0.5500 -0.4445 0.0000
vt 0.4209 -0.8906 0.0000
vt 0.5500 -0.9240 0.0000
vt 0.5500 -0.1382 0.0000
vt 0.3826 -0.8906 0.0000
vt 0.4875 -0.4446 0.0000
vt 1.3125 0.1250 0.0000
vt 0.5500 -0.9211 0.0000
vt 0.8834 -0.8906 0.0000
vt 0.5500 -0.1771 0.0000
vt 0.4875 -0.1382 0.0000
vt 0.8451 -0.8906 0.0000
vt 0.8711 -0.7969 0.0000
vt 0.8875 -0.9225 0.0000
vt 0.5500 -0.1406 0.0000
vt 0.8875 -0.4758 0.0000
vt 0.8875 -0.4460 0.0000
vt -0.1625 -0.3828 0.0000
vt -0.1125 -0.4758 0.0000
vt 0.3174 -0.4766 0.0000
vt 0.2708 -0.3073 0.0000
vt 0.5051 -0.9062 0.0000
vt 0.4000 -0.4453 0.0000
vt 0.8875 -0.9211 0.0000
vt 0.4875 -0.9195 0.0000
vt 0.9028 -0.3173 0.0000
vt 0.8875 -0.4445 0.0000
vt 0.8375 -0.9219 0.0000
vt 0.8875 -0.4446 0.0000
vt 0.5500 0.0781 0.0000
vt 0.4875 -0.1428 0.0000
vt -0.1625 -0.4141 0.0000
vt 0.5500 -0.9211 0.0000
vt 0.5500 -0.1797 0.0000
vt 0.4875 0.0781 0.0000
vt 0.5250 -0.1193 0.0000
vt 0.4500 -0.1094 0.0000
vt 0.4500 -0.1818 0.0000
vt 0.7500 -0.1406 0.0000
vt 0.8375 0.0760 0.0000
vt -0.1125 -0.8906 0.0000
vt 0.8375 0.0760 0.0000
vt 0.8875 -0.4766 0.0000
vt 0.8875 -0.9225 0.0000
vt 0.4875 -0.4758 0.0000
vt 0.8500 -0.1459 0.0000
vt 0.8875 0.0760 0.0000
vt 0.8375 -0.4445 0.0000
vt 0.5875 -0.1193 0.0000
vt 0.8875 0.0760 0.0000
vt 0.4875 -0.4459 0.0000
vt 0.8875 -0.9211 0.0000
vt 0.8375 -0.1428 0.0000
vt 0.5500 -0.3828 0.0000
vt 0.8875 -0.4453 0.0000
vt 0.4250 -0.9219 0.0000
vt -0.1125 -0.4460 0.0000
vt 0.4875 -0.7969 0.0000
vt 0.3679 -0.7969 0.0000
vt 0.5500 -0.1428 0.0000
vt 0.8875 -0.1428 0.0000
vt 0.8500 -0.1094 0.0000
vt 0.8375 -0.9240 0.0000
vt 0.5500 -0.4141 0.0000
vt 0.4875 -0.9240 0.0000
vt 0.8875 -0.4460 0.0000
vt -0.1125 -0.4772 0.0000
vt -0.1125 -0.7969 0.0000
vt 0.5500 -0.1381 0.0000
vt 0.4209 -0.8906 0.0000
o Selection
s off
g TramDoor2
usemtl SUBWAY_DOOR
f 199/158/50 4/173/50 163/40/50 167/147/50
f 161/154/2 158/58/2 269/178/2 189/139/2
f 128/168/53 131/119/53 4/112/53 269/11/53
f 189/139/4 199/158/4 202/37/4 195/53/4
f 158/58/19 161/154/19 167/147/19 163/40/19
f 199/158/17 189/139/17 269/178/17 4/173/17
g TramDoor3
usemtl SUBWAY_DOOR
f 256/110/2 165/47/2 10/57/2 82/31/2
f 137/177/50 200/158/50 74/113/50 37/51/50
f 82/35/22 137/177/22 175/153/22 126/7/22
f 87/138/46 149/212/46 106/158/46 40/66/46
f 145/51/26 114/212/26 180/138/26 220/121/26
f 82/35/27 10/66/27 200/158/27 137/177/27
g TramDoor4
usemtl SUBWAY_DOOR
f 79/25/47 227/50/47 181/50/47 38/25/47
f 96/177/3 237/158/3 13/158/3 137/177/3
f 237/158/16 96/177/16 38/83/16 181/124/16
f 79/83/6 137/177/6 13/158/6 227/124/6
f 227/124/15 13/158/15 237/158/15 181/124/15
f 38/83/33 96/177/33 137/177/33 79/83/33
g TramDoor5
usemtl SUBWAY_DOOR
f 227/50/2 154/2/2 23/185/2 226/196/2
f 229/204/50 26/193/50 157/39/50 231/57/50
f 154/171/11 157/103/11 152/82/11 150/206/11
f 162/90/30 166/102/30 231/57/30 227/50/30
f 178/190/56 31/204/56 30/196/56 177/183/56
f 227/50/57 231/57/57 157/39/57 154/2/57
g TramDoor6
usemtl SUBWAY_DOOR
f 2/139/2 201/178/2 90/49/2 11/69/2
f 16/97/50 105/70/50 207/173/50 13/158/50
f 201/11/11 207/112/11 57/146/11 51/208/11
f 71/174/30 77/203/30 13/158/30 2/139/30
f 105/70/18 16/97/18 11/69/18 90/49/18
f 2/139/57 13/158/57 207/173/57 201/178/57
g TramDoor7
usemtl SUBWAY_DOOR
f 82/31/50 224/39/50 148/52/50 78/128/50
f 75/125/2 142/15/2 221/2/2 79/25/2
f 127/93/36 129/20/36 224/103/36 221/171/36
f 79/25/28 82/31/28 255/17/28 250/13/28
f 85/15/29 210/10/29 213/16/29 89/52/29
f 82/31/41 79/25/41 221/2/41 224/39/41
g TramDoor8
usemtl SUBWAY_DOOR
f 201/11/2 81/132/2 252/91/2 216/106/2
f 219/151/3 258/88/3 86/6/3 207/112/3
f 81/132/23 86/6/23 238/144/23 233/36/23
f 246/75/24 254/176/24 207/112/24 201/11/24
f 258/88/12 219/151/12 216/106/12 252/91/12
f 201/11/13 207/112/13 86/6/13 81/132/13
g TramDoor9
usemtl SUBWAY_DOOR
f 115/186/2 36/198/2 240/172/2 266/159/2
f 76/80/3 184/94/3 81/132/3 160/116/3
f 36/77/40 81/132/40 144/149/40 225/101/40
f 234/162/1 45/188/1 160/116/1 115/89/1
f 184/94/59 121/80/59 170/64/59 240/43/59
f 146/89/10 187/116/10 81/132/10 36/77/10
g TramDoor10
usemtl SUBWAY_DOOR
f 154/171/2 33/65/2 173/30/2 169/109/2
f 171/195/3 174/170/3 36/198/3 157/103/3
f 33/65/23 36/198/23 183/127/23 182/191/23
f 204/23/24 205/167/24 157/103/24 154/171/24
f 174/170/12 171/195/12 169/109/12 173/30/12
f 154/171/13 157/103/13 36/198/13 33/65/13
g TramDoor11
usemtl SUBWAY_DOOR
f 259/116/3 239/132/3 39/34/3 211/22/3
f 130/96/2 100/111/2 196/198/2 209/186/2
f 54/87/31 138/142/31 239/132/31 196/77/31
f 209/89/48 259/116/48 92/78/48 179/56/48
f 100/200/54 130/210/54 211/22/54 39/34/54
f 259/116/25 209/89/25 196/77/25 239/132/25
g TramDoor12
usemtl SUBWAY_DOOR
f 8/72/2 52/76/2 192/65/2 221/171/2
f 224/103/3 196/198/3 54/209/3 15/157/3
f 52/76/31 54/209/31 196/198/31 192/65/31
f 221/171/43 224/103/43 247/187/43 244/46/43
f 8/72/42 15/157/42 68/160/42 67/21/42
f 224/103/51 221/171/51 192/65/51 196/198/51
g TramDoor13
usemtl SUBWAY_DOOR
f 4/112/3 243/6/3 147/137/3 60/120/3
f 53/73/2 138/142/2 239/132/2 269/11/2
f 83/194/44 88/79/44 243/6/44 239/132/44
f 269/11/43 4/112/43 164/86/43 159/105/43
f 138/142/52 53/73/52 60/120/52 147/137/52
f 4/112/51 269/11/51 239/132/51 243/6/51
g TramDoor14
usemtl SUBWAY_DOOR
f 59/135/50 113/180/50 151/180/50 20/135/50
f 55/205/47 17/41/47 241/41/47 108/205/47
f 113/180/7 55/44/7 108/44/7 151/180/7
f 17/99/6 59/135/6 20/135/6 241/99/6
f 108/44/34 241/99/34 20/135/34 151/180/34
f 17/99/8 55/44/8 113/180/8 59/135/8
g TramDoor15
usemtl SUBWAY_DOOR
f 140/135/50 103/180/50 141/180/50 104/135/50
f 46/205/47 94/41/47 47/41/47 95/205/47
f 94/99/6 140/135/6 104/135/6 47/99/6
f 103/180/7 46/44/7 95/44/7 141/180/7
f 94/99/8 46/44/8 103/180/8 140/135/8
f 95/44/34 47/99/34 104/135/34 141/180/34
g TramDoor16
usemtl SUBWAY_OUTSIDE
f 203/123/50 271/133/50 72/129/50 274/169/50
f 269/133/47 201/123/47 273/169/47 70/129/47
f 70/129/34 273/169/34 274/169/34 72/129/34
f 201/123/8 269/133/8 271/133/8 203/123/8
f 203/123/20 274/169/20 273/169/20 201/123/20
f 269/133/45 91/71/45 93/71/45 271/133/45
g TramDoor17
usemtl SUBWAY_OUTSIDE
f 268/68/3 260/164/3 188/98/3 109/74/3
f 107/1/8 267/26/8 268/26/8 109/1/8
f 259/164/34 187/98/34 188/98/34 260/164/34
f 187/98/32 259/164/32 267/68/32 107/74/32
f 109/74/21 188/98/21 187/98/21 107/74/21
f 267/68/9 259/164/9 260/164/9 268/68/9
g TramDoor18
usemtl SUBWAY_OUTSIDE
f 5/27/50 191/60/50 271/9/50 203/107/50
f 189/60/2 2/27/2 201/107/2 269/9/2
f 269/9/34 201/107/34 203/107/34 271/9/34
f 2/27/8 189/60/8 191/60/8 5/27/8
f 5/27/57 203/107/57 201/107/57 2/27/57
f 189/60/17 269/9/17 271/9/17 191/60/17
g TramDoor19
usemtl SUBWAY_DOOR
f 112/100/47 69/152/47 265/42/47 139/136/47
f 70/152/50 113/100/50 141/136/50 267/42/50
f 112/100/16 139/136/16 141/136/16 113/100/16
f 139/136/34 265/42/34 267/42/34 141/136/34
f 69/152/8 112/100/8 113/100/8 70/152/8
f 262/8/49 43/85/49 41/85/49 261/8/49
g TramDoor20
usemtl SUBWAY_DOOR
f 185/14/47 58/54/47 101/28/47 122/134/47
f 59/54/35 104/28/35 101/28/35 58/54/35
f 122/134/34 101/28/34 104/28/34 123/134/34
f 58/54/8 185/14/8 186/14/8 59/54/8
f 272/155/37 63/61/37 64/61/37 273/155/37
f 59/54/38 186/14/38 123/134/38 104/28/38
g TramDoor21
usemtl SUBWAY_DOOR
f 215/92/47 249/130/47 95/130/47 55/92/47
f 113/18/3 141/201/3 25/201/3 263/18/3
f 215/184/6 263/18/6 25/201/6 249/211/6
f 113/18/7 55/184/7 95/211/7 141/201/7
f 249/211/15 25/201/15 141/201/15 95/211/15
f 55/184/33 113/18/33 263/18/33 215/184/33
g TramDoor22
usemtl SUBWAY_DOOR
f 207/199/50 4/81/50 243/166/50 86/55/50
f 242/166/34 84/55/34 86/55/34 243/166/34
f 206/199/8 1/81/8 4/81/8 207/199/8
f 1/81/32 206/199/32 84/55/32 242/166/32
f 1/81/58 242/166/58 243/166/58 4/81/58
f 207/199/5 86/55/5 84/55/5 206/199/5
g TramDoor23
usemtl SUBWAY_DOOR
f 197/33/2 12/182/2 206/45/2 1/38/2
f 13/182/50 199/33/50 4/38/50 207/45/50
f 1/108/34 206/95/34 207/95/34 4/108/34
f 12/182/8 197/33/8 199/33/8 13/182/8
f 197/33/17 1/38/17 4/38/17 199/33/17
f 13/182/57 207/45/57 206/45/57 12/182/57
g TramDoor24
usemtl SUBWAY_OUTSIDE
f 136/32/47 12/27/47 198/141/47
f 200/141/3 13/27/3 137/32/3
f 137/32/35 13/27/35 12/27/35 136/32/35
f 198/141/34 12/27/34 13/27/34 200/141/34
f 136/32/55 102/165/55 106/165/55 137/32/55
g TramDoor25
usemtl SUBWAY_DOOR
f 44/8/50 56/100/50 97/136/50 235/85/50
f 55/100/47 42/8/47 232/85/47 95/136/47
f 55/100/16 95/136/16 97/136/16 56/100/16
f 95/136/34 232/85/34 235/85/34 97/136/34
f 42/8/8 55/100/8 56/100/8 44/8/8
f 62/12/49 253/156/49 251/156/49 61/12/49
g TramDoor26
usemtl SUBWAY_DOOR
f 118/14/47 17/54/47 47/28/47 32/134/47
f 18/54/35 48/28/35 47/28/35 17/54/35
f 32/134/34 47/28/34 48/28/34 34/134/34
f 17/54/8 118/14/8 119/14/8 18/54/8
f 98/155/37 21/61/37 22/61/37 99/155/37
f 18/54/38 119/14/38 34/134/38 48/28/38
g TramDoor27
usemtl SUBWAY_OUTSIDE
f 230/27/2 156/107/2 223/9/2 110/62/2
f 224/9/50 157/107/50 231/27/50 111/62/50
f 230/27/8 110/62/8 111/62/8 231/27/8
f 223/9/34 156/107/34 157/107/34 224/9/34
f 65/24/39 223/9/39 224/9/39 66/24/39
f 231/27/57 157/107/57 156/107/57 230/27/57
g TramDoor28
usemtl SUBWAY_DOOR
f 209/131/3 146/163/3 50/202/3 218/3/3
f 49/202/8 217/3/8 218/3/8 50/202/8
f 208/131/34 143/163/34 146/163/34 209/131/34
f 49/202/32 143/163/32 208/131/32 217/3/32
f 217/3/9 208/131/9 209/131/9 218/3/9
f 50/202/21 146/163/21 143/163/21 49/202/21
g TramDoor29
usemtl SUBWAY_DOOR
f 223/199/47 156/48/47 117/148/47 27/213/47
f 157/48/50 224/199/50 28/213/50 118/148/50
f 27/213/34 117/148/34 118/148/34 28/213/34
f 156/48/8 223/199/8 224/199/8 157/48/8
f 223/199/45 6/145/45 9/145/45 224/199/45
f 157/48/14 118/148/14 117/148/14 156/48/14
g TramDoor30
usemtl SUBWAY_DOOR
f 73/84/47 193/104/47 33/104/47 192/84/47
f 245/207/50 134/197/50 243/197/50 86/207/50
f 134/197/7 73/161/7 192/161/7 243/197/7
f 193/175/6 245/207/6 86/207/6 33/175/6
f 134/197/33 245/207/33 193/175/33 73/161/33
f 192/161/34 33/175/34 86/207/34 243/197/34
g TramDoor31
usemtl SUBWAY_DOOR
f 155/199/50 222/81/50 194/166/50 35/55/50
f 192/166/34 33/55/34 35/55/34 194/166/34
f 154/199/8 221/81/8 222/81/8 155/199/8
f 221/81/32 154/199/32 33/55/32 192/166/32
f 155/199/5 35/55/5 33/55/5 154/199/5
f 221/81/58 192/166/58 194/166/58 222/81/58
g TramDoor32
usemtl SUBWAY_OUTSIDE
f 222/9/3 155/107/3 228/27/3 80/32/3
f 79/32/2 227/27/2 154/107/2 221/9/2
f 80/32/35 228/27/35 227/27/35 79/32/35
f 221/9/34 154/107/34 155/107/34 222/9/34
f 79/32/41 221/9/41 222/9/41 80/32/41
f 228/27/57 155/107/57 154/107/57 227/27/57
g TramDoor33
usemtl SUBWAY_DOOR
f 160/117/50 259/140/50 19/140/50 172/117/50
f 209/189/47 115/4/47 125/4/47 236/189/47
f 259/140/7 209/29/7 236/29/7 19/140/7
f 115/63/6 160/117/6 172/117/6 125/63/6
f 236/29/34 125/63/34 172/117/34 19/140/34
f 115/63/8 209/29/8 259/140/8 160/117/8
g TramDoor34
usemtl SUBWAY_DOOR
f 200/192/50 199/19/50 14/19/50 120/192/50
f 189/5/47 190/179/47 116/179/47 3/5/47
f 199/19/7 189/5/7 3/5/7 14/19/7
f 190/179/6 200/192/6 120/192/6 116/179/6
f 3/5/34 116/179/34 120/192/34 14/19/34
f 190/179/8 189/5/8 199/19/8 200/192/8
g TramDoor35
usemtl SUBWAY_DOOR
f 24/114/50 212/181/50 190/181/50 2/114/50
f 29/59/47 248/67/47 231/67/47 10/59/47
f 248/122/6 24/114/6 2/114/6 231/122/6
f 212/181/7 29/115/7 10/115/7 190/181/7
f 248/122/8 29/115/8 212/181/8 24/114/8
f 10/115/34 231/122/34 2/114/34 190/181/34
g TramDoor36
usemtl SUBWAY_DOOR
f 176/18/3 214/201/3 104/201/3 59/18/3
f 17/92/47 47/130/47 168/130/47 132/92/47
f 176/18/7 132/184/7 168/211/7 214/201/7
f 17/184/6 59/18/6 104/201/6 47/211/6
f 47/211/15 104/201/15 214/201/15 168/211/15
f 132/184/33 176/18/33 59/18/33 17/184/33
