# Blender 5.1.1
# www.blender.org
mtllib zombie.mtl
o zombie
v 6.212130 35.202412 1.074790
v 5.002150 41.996765 -0.831522
v 7.932147 43.112362 1.978668
v 8.337475 51.133675 1.598161
v 3.302166 47.360374 -2.423951
v 0.732177 53.553844 -0.445696
v -4.867835 48.275799 -0.754076
v -4.257825 53.718262 0.764076
v -7.897842 48.163967 2.973275
v -7.952862 53.579739 5.073278
v -4.707000 56.470211 5.782466
v -2.737825 57.208782 5.364116
v 3.022174 55.284145 3.430652
v 5.142171 55.177696 4.825697
v 8.571256 52.597267 4.756316
v 8.338433 52.755268 7.264230
v -4.827849 42.195259 -0.864853
v 0.382118 31.522507 -4.160000
v -6.547858 40.489094 1.289810
v -4.997870 35.180386 1.078470
v -3.127862 35.316189 -2.948455
v -6.214445 55.531940 5.374964
v 4.122138 35.316174 -2.948441
v -7.587848 45.052750 2.147411
v 5.252163 54.026699 7.534977
v 7.556480 50.066223 8.792359
v 8.289283 51.077019 7.374091
v 8.387960 49.221947 7.753784
v 8.372144 46.677177 7.834210
v 4.412134 41.269295 6.559694
v 2.622138 45.990601 10.071645
v 0.366713 44.226444 9.162261
v 1.862146 47.143963 7.491775
v -0.317856 44.660229 5.799102
v -1.120443 46.124626 9.982596
v -2.039341 40.181705 7.645375
v -3.117862 44.372932 8.164759
v -4.647863 41.270374 4.917939
v -6.607852 49.016617 9.117379
v -7.369478 49.055599 8.190350
v -7.803069 52.108597 8.469394
v -7.883200 53.293083 7.015718
v -6.997294 51.951336 9.240170
v -6.237886 54.258690 8.966089
v -5.631165 52.754337 10.172202
v -2.967833 56.417091 8.179879
v -3.747846 52.362080 10.060107
v -1.877842 53.496574 9.587812
v -3.947855 48.607872 9.872471
v -2.237855 49.417149 11.208539
v -3.147877 36.570820 6.336608
v -7.827852 46.826813 6.235547
v 6.502144 47.328800 9.041024
v 4.632153 51.817703 9.798253
v 2.632146 49.025440 9.857558
v 2.602149 50.390507 9.887637
v 3.852125 35.688534 4.403282
v -0.413293 39.877262 7.629616
v 0.622119 35.287777 6.905673
v -0.947863 40.700085 4.492176
v -5.477855 48.421894 9.737308
v -2.827858 47.980984 10.925810
v -0.287852 51.027905 11.228873
v 3.542179 56.363983 2.177593
v 5.242176 56.514797 3.583176
v 5.192181 59.256042 4.621726
v 4.402183 60.453857 5.351207
v 1.792184 59.269230 3.262004
v 0.042182 57.717999 2.453193
v 3.122182 60.436859 5.800104
v 1.962182 61.214447 6.490724
v 0.652184 60.640457 5.024116
v -1.887823 57.874554 5.224993
v 3.052170 59.256378 10.459564
v 5.452155 54.068901 11.550917
v 6.812172 57.748756 7.434326
v 2.892159 56.833305 13.136786
v -0.797842 55.503971 11.621740
v -1.027823 60.155010 8.124909
v 1.972150 53.284294 13.216228
v 3.492148 51.820187 12.553740
v -0.997846 53.185169 11.045836
v 5.192154 52.703644 10.478269
v 6.782179 58.639271 4.631562
v 6.692179 57.614418 3.676062
v 7.392174 56.213577 4.642835
v 7.542174 57.480293 6.094019
v 7.062167 56.135529 8.127072
v 6.852167 54.770813 6.346045
v 4.972171 54.333519 3.610430
v 4.522175 54.524357 2.083863
v 4.502171 54.029087 3.389026
v 5.252177 54.776146 1.229288
v 4.892175 55.021523 2.667408
v 5.522178 55.919559 2.024655
v 5.962176 55.947758 3.356311
v 6.742178 56.545731 3.001592
v 6.842175 55.547668 3.197475
v 5.742174 54.793053 2.747418
v 5.572174 54.270771 2.144656
v 5.242170 53.788498 3.411803
v 4.862172 53.831287 2.950534
v -1.097816 61.051727 5.334855
v -2.087821 60.441494 6.954424
v -3.327819 58.239063 3.182434
v -3.117821 58.483829 4.683797
v -3.747819 57.843151 2.919276
v -3.327822 56.954571 3.565285
v -2.797819 57.889507 3.030412
v -3.377816 58.762314 2.706817
v -3.217818 57.039459 1.659165
v -3.437823 55.661209 2.252990
v -2.567822 55.788612 2.159354
v -1.957828 58.904358 8.931852
v -1.427839 55.002182 9.883865
v -3.207818 56.180450 0.559801
v -2.287825 54.848541 2.148442
v -2.857825 55.195930 2.797225
v -3.367824 54.949932 2.130528
v -2.927824 54.574791 1.715475
v -1.589345 37.431705 6.735373
v -0.959346 37.891701 8.335374
v -1.339342 39.001705 6.905375
v -0.559345 37.501701 7.055374
v 0.586708 40.088547 6.736443
v 0.726705 39.634007 9.152058
v 0.746710 42.088234 7.926923
v 2.256708 40.069027 6.435581
v -1.590443 45.195805 8.499293
v -2.680444 44.917149 8.169371
v -2.210449 42.775848 10.175898
v -1.660446 43.318588 7.813393
v 4.552142 46.866276 9.125085
v 3.672143 47.114460 9.295097
v 5.272143 48.661282 10.884984
v 4.542142 48.478443 11.477746
v 3.912141 46.562042 9.517438
v 5.082140 48.224743 11.876916
v 5.602142 48.450073 11.467986
v 5.372147 49.940685 10.701317
v 4.812147 50.437241 11.348101
v 5.762146 50.767151 11.895239
v 6.282146 50.215889 11.345959
v -3.427855 50.084827 11.819033
v -2.497857 49.982910 12.545405
v -3.207858 49.762863 13.061908
v -1.887845 53.666615 10.968279
v -3.887857 49.766541 12.682451
v -2.757845 53.383251 10.839033
v -7.272105 43.600227 1.210175
v -9.520705 40.894615 -0.936507
v -8.211854 44.140583 -0.355995
v -9.927861 44.420540 0.171592
v -11.009726 43.642956 1.231702
v -9.478398 47.884033 3.959134
v -10.691543 38.935711 1.722842
v -8.816883 47.601677 6.651414
v -9.039228 38.571896 2.069961
v -7.153922 47.530209 7.565118
v -6.187845 47.629829 3.846837
v -7.213594 49.188747 2.200102
v -8.748224 48.947052 2.755704
v -9.575300 51.994579 5.955862
v -8.273952 50.988819 9.468629
v -7.190078 51.574963 9.731790
v -7.260244 53.149685 8.917221
v -6.416660 53.124443 6.505224
v -7.254602 54.130196 5.953125
v -7.429316 53.916069 4.435718
v -8.275791 53.344009 4.539767
v -6.666980 50.942860 2.724414
v -12.023714 39.642185 0.364785
v -10.823883 36.743710 -0.053419
v -9.521488 36.224010 -2.016982
v -8.503042 39.364117 0.282033
v -11.211336 37.568989 -2.327574
v -12.521449 37.287148 -1.598327
v 14.354448 16.155691 -5.102784
v 14.736861 15.870587 -5.061845
v 14.384550 17.734871 -3.957012
v 14.967584 17.485279 -3.695525
v 15.857530 19.033579 -2.759062
v 15.685407 20.393068 -1.262588
v 16.272303 20.351830 -1.868601
v 17.249905 20.719660 -1.134984
v 17.041300 19.203753 -2.368254
v 17.617590 17.139771 -3.308238
v 17.366405 19.468367 -2.781030
v 18.662758 17.483768 -3.283967
v 18.060087 19.561804 -2.346545
v 17.920053 20.946836 -1.813949
v 18.445040 21.320660 -1.227993
v 18.813181 20.013474 -2.678998
v 19.938620 18.759546 -4.031608
v 19.274471 20.547117 -3.003553
v 20.869312 19.334282 -3.883331
v 18.788403 21.537144 -1.966937
v 16.390938 25.580694 -1.029787
v 14.388020 23.188387 -0.597766
v 14.982722 20.486469 -2.022397
v 14.861575 19.156706 -2.682165
v 15.217359 19.401852 -3.092313
v 14.893398 18.068924 -4.524534
v 15.097923 16.095453 -5.192877
v 14.853692 15.393109 -7.284853
v 14.387393 14.928270 -7.304613
v 14.035919 16.384134 -10.664899
v 13.973112 15.453575 -7.163104
v -16.865662 20.890701 -1.233945
v -16.021265 20.712358 -0.540556
v -17.387808 21.259474 -0.637648
v -15.961496 24.835344 -0.454966
v -13.368415 22.645618 -0.013398
v -13.850588 24.523443 0.283197
v -11.373917 22.354858 -1.534019
v -10.868292 22.619734 -1.593886
v -10.182683 21.028807 -2.992840
v -9.762072 21.137157 -3.273635
v -10.660290 18.787483 -5.869095
v -10.591920 21.346485 -3.586898
v -10.584651 21.239378 -3.349885
v -11.585585 23.014982 -2.126585
v -11.721661 22.147762 -1.849433
v -13.120653 24.653315 -0.945961
v -13.179329 22.422089 -1.366647
v -16.301804 21.047546 -1.843916
v -17.735336 21.472528 -1.390160
v -17.705057 19.779846 -2.102794
v -18.810583 18.565254 -3.450478
v -19.449324 18.522545 -3.234408
v -20.090881 17.495501 -7.641196
v -20.667997 17.250149 -7.723891
v -19.902998 19.386745 -11.173761
v -20.846113 17.959953 -7.546828
v -19.744640 19.133698 -3.310440
v -18.168922 20.315132 -2.425899
v 12.313671 37.597282 -1.718080
v 13.642250 36.945412 0.275245
v 12.327198 36.871906 -1.879462
v 14.441001 34.441757 -1.710888
v 11.934557 36.598534 1.373875
v 13.693796 30.405312 -0.273083
v 10.779996 33.231232 -1.820740
v 12.615380 30.106255 -1.102350
v 12.770854 33.210644 -2.765811
v 13.702443 30.026922 -1.671385
v 14.782223 30.916506 -0.460181
v 14.748911 25.131330 -0.308457
v 13.733992 25.172338 -1.539374
v 11.822419 23.342573 -2.191196
v 12.529486 23.732857 -2.703381
v 10.630774 21.923880 -3.861345
v 11.583233 21.788576 -4.176645
v 11.061982 19.539391 -6.449901
v 11.581405 21.678337 -3.938226
v 11.061869 21.809299 -3.588895
v 12.744278 22.691261 -2.438723
v 12.316383 23.078814 -2.120274
v -16.493082 16.945786 -2.729307
v -17.452814 14.286986 -6.901997
v -18.300282 14.559011 -6.900196
v -17.757765 14.775296 -11.321838
v -18.033426 13.933700 -6.928036
v -17.540298 17.282907 -2.705088
v -16.347858 19.489279 -2.014570
v -15.879816 19.219624 -1.785396
v -15.028679 20.330809 -1.293325
v -13.738745 20.475380 -1.443966
v -14.694917 19.011860 -2.179995
v -14.073674 19.376276 -2.509629
v -13.772471 17.877449 -3.934162
v -13.265569 17.548019 -3.370933
v -13.983867 15.894908 -4.603075
v -13.239127 15.946512 -4.518224
v -12.850381 15.256954 -6.579389
v -13.286734 14.793583 -6.715711
v -12.910209 16.187195 -10.069391
v -13.733365 15.199351 -6.693939
v -11.219944 36.841484 -2.489639
v -13.598265 34.133945 -1.122320
v -12.874564 30.108301 0.318457
v -9.951991 32.925987 -1.231936
v -11.777526 29.809488 -0.521256
v -11.941664 32.917507 -2.170248
v -12.871206 29.798725 -1.347361
v -14.344831 30.472246 0.129358
v -14.445564 20.385000 -0.675110
v -13.704778 19.126440 -2.098778
v -13.842661 17.286875 -3.113312
v -13.603815 15.668390 -4.465777
v 17.540176 21.048330 -2.433298
v 14.197595 22.963041 -1.952630
v 18.248121 17.006529 -3.076557
v 19.115219 14.091688 -7.515449
v 19.428549 14.748886 -7.486887
v 18.883261 14.974445 -11.910734
v 18.568859 14.479222 -7.490793
v -17.120852 16.802917 -2.495866
v -16.898096 19.580465 -1.760946
v 20.737352 18.514441 -3.815162
v 21.792253 17.456940 -8.303676
v 21.973597 18.172939 -8.127436
v 21.033575 19.587700 -11.770017
v 21.209509 17.701096 -8.225591
v -18.598404 20.292280 -1.990354
v 10.642395 35.875881 -0.137158
v 10.226608 38.463810 1.455058
v 11.973971 38.857601 1.129867
v 13.155497 39.706444 -0.201284
v 12.401232 43.362770 0.839517
v 10.340568 40.766869 -1.504575
v 11.295793 44.138271 -0.198703
v 9.621843 43.827255 -0.775211
v 8.479915 48.214813 1.335316
v 7.432154 46.668289 2.954452
v 7.906404 50.454922 2.219122
v 8.080750 52.319096 3.279245
v 9.771458 51.958687 3.620144
v 8.204044 52.838726 4.664482
v 7.795436 52.962093 7.051996
v 7.301100 51.531952 5.199963
v 8.451498 49.687546 7.869017
v 8.297553 45.453758 5.750167
v 10.108746 46.317135 5.652388
v 9.069808 41.350719 3.783827
v 9.236281 39.094082 -0.316414
v 10.007223 47.838959 1.828733
v 11.282618 46.886429 2.955700
v 10.686758 51.135159 4.984155
v 9.765406 49.725620 7.844630
v 8.135325 43.068157 0.739858
v 1.046923 21.385569 0.279777
v 2.006915 15.897998 0.133661
v 3.426929 22.172182 3.558376
v 3.716921 17.672295 2.782219
v 3.916917 15.279953 1.962434
v 6.396923 18.173100 3.474235
v 6.016917 15.283086 2.311703
v 7.376916 16.124226 0.266761
v 5.946908 9.515748 1.111741
v 7.266906 10.085652 -0.912442
v 6.036899 3.474317 0.762292
v 6.626896 3.571300 -1.573730
v 3.956907 9.402170 0.706774
v 2.276906 10.179749 -1.147482
v 4.196898 3.437515 0.425924
v 6.006930 22.989407 3.807245
v 7.176925 21.906178 0.837223
v 3.026896 3.452358 -1.364795
v 5.296898 3.341547 0.260724
v 4.296897 3.377430 -0.079734
v 4.896899 2.936404 1.657881
v 3.766901 1.906404 4.397882
v 3.476891 0.046407 -1.522118
v 3.536899 -0.053595 4.507882
v 6.206891 0.016403 -1.592121
v 7.006898 -0.053600 4.067878
v 6.366901 1.836401 4.037879
v 5.196901 0.116402 6.027880
v 5.046903 1.906402 5.627881
v 4.936902 2.536403 4.237881
v 6.066893 1.766403 -1.562121
v 6.046895 3.314224 -1.570275
v 4.636894 3.464994 -3.145763
v 6.046896 3.509311 -1.526217
v -4.232731 0.016417 -1.582109
v -2.792734 -0.033584 -3.622111
v -1.502731 0.056414 -1.522113
v -2.992731 1.766416 -3.522110
v -4.302729 1.836418 -1.562109
v -4.362721 1.826416 4.047892
v -3.522724 3.351313 0.262937
v -2.932723 2.936415 1.657890
v -2.272724 3.377439 -0.079727
v -1.792721 1.906412 4.397888
v -1.562723 -0.053588 4.507887
v -4.852724 -0.053583 4.067892
v -3.232721 0.086414 6.047890
v -3.082719 1.906414 5.627890
v -2.972720 2.536414 4.247890
v 4.756888 -0.033595 -3.622120
v 4.956891 1.756405 -3.532119
v 3.676896 3.419948 -1.402871
v -2.672728 3.474759 -3.143552
v -2.742729 3.475721 -3.737942
v -1.202726 3.588924 -1.333951
v -5.012726 3.523487 -1.543510
v -4.172726 3.314239 -1.570263
v -1.702726 3.429710 -1.400662
v -3.972723 3.464577 0.760101
v -2.292724 3.517761 0.433799
v 4.706893 3.577659 -3.735430
v 6.562132 33.282505 0.999985
v 3.606938 28.540920 4.118442
v 3.662141 31.562504 4.669992
v 1.722138 28.572502 3.719996
v -2.437859 31.572502 4.680007
v -0.827862 28.572502 3.730002
v -2.522683 28.723396 4.120787
v -1.722693 22.172190 3.558381
v -4.462692 22.999306 3.805740
v -5.557868 33.282505 1.000016
v 0.452129 25.892504 0.119998
v 0.607302 21.385569 0.279776
v -5.822697 21.906197 0.837239
v -1.502699 24.173136 -3.244024
v 3.076923 24.334311 -3.248540
v 6.416918 21.541100 -3.517809
v 5.252123 32.752506 -2.480012
v 3.656918 22.034172 -4.787327
v -2.312705 22.030449 -5.009325
v -4.407877 32.572506 -2.479988
v -4.772704 21.538122 -3.669094
v -4.012700 22.732746 -1.950470
v 5.556922 22.722851 -1.948964
v -4.562716 11.779219 -2.918640
v -2.722717 12.020275 -3.940646
v -4.662708 16.067659 -1.570832
v -2.602710 15.758690 -2.563276
v -2.052702 21.930983 -3.021209
v 3.686920 22.011564 -3.023471
v 4.296912 15.758681 -2.563283
v 6.356913 16.057890 -1.573047
v 4.536903 10.821731 -3.944779
v 6.386904 10.580670 -2.922779
v -0.452715 11.378286 -1.143354
v -0.442706 15.999951 0.136183
v -5.492714 11.284204 -0.908301
v -5.722706 16.124245 0.266776
v -2.012701 17.672302 2.782225
v -2.212705 15.287513 1.974398
v -2.132713 10.598510 0.720661
v -4.112713 10.704541 1.113675
v -4.702699 18.173117 3.474248
v -4.312704 15.292855 2.313918
vn 0.9987 0.0031 -0.0511
vn 0.4709 0.0279 -0.8818
vn 0.9783 -0.1676 -0.1219
vn 0.7489 0.3464 -0.5650
vn 0.1369 0.0773 -0.9876
vn 0.0681 0.6107 -0.7889
vn -0.5491 0.1302 -0.8255
vn -0.4931 0.5838 -0.6450
vn -0.9415 0.0810 -0.3271
vn -0.8441 0.5090 -0.1684
vn -0.4477 0.8907 -0.0792
vn -0.8151 0.4934 -0.3036
vn 0.8430 0.3516 -0.4072
vn 0.9151 0.3948 -0.0814
vn 0.7525 0.4989 0.4299
vn -0.4215 0.0067 -0.9068
vn 0.0019 0.1624 -0.9867
vn -0.9742 -0.1809 -0.1348
vn -0.9717 0.0621 -0.2281
vn -0.6090 0.1481 -0.7792
vn -0.6092 0.7930 -0.0098
vn 0.5875 0.1699 -0.7912
vn -0.9678 -0.1955 -0.1583
vn 0.9694 -0.0506 0.2403
vn 0.6329 0.1588 0.7578
vn 0.9850 -0.0081 0.1723
vn 0.9056 -0.0017 0.4241
vn 0.6985 -0.3493 0.6246
vn 0.5160 -0.4431 0.7331
vn -0.1223 -0.1840 0.9753
vn -0.6095 0.0958 0.7870
vn -0.5866 -0.1353 0.7985
vn -0.1998 -0.2964 0.9339
vn 0.2979 -0.4751 0.8280
vn 0.1169 -0.2177 0.9690
vn -0.5008 -0.4390 0.7460
vn -0.7437 -0.3491 0.5701
vn -0.6448 -0.3335 0.6877
vn -0.8508 -0.2775 0.4462
vn -0.8371 0.0775 0.5415
vn -0.9358 0.2554 0.2432
vn -0.6421 0.1739 0.7466
vn -0.6255 0.6166 0.4781
vn -0.2283 0.1829 0.9563
vn -0.6858 0.5278 0.5012
vn 0.1129 0.1822 0.9768
vn -0.7159 0.0749 0.6942
vn -0.4808 -0.1402 0.8656
vn 0.7352 0.6506 -0.1904
vn -0.7345 -0.1665 0.6579
vn -0.9380 -0.2472 0.2430
vn 0.3650 -0.1083 0.9247
vn 0.1751 -0.5516 0.8155
vn 0.0266 -0.1843 0.9825
vn 0.2516 -0.4089 0.8772
vn 0.6735 -0.0874 0.7340
vn -0.4750 -0.2133 0.8537
vn 0.1268 -0.1872 0.9741
vn -0.1789 0.0217 0.9836
vn -0.3741 -0.2683 0.8877
vn 0.0876 -0.5738 0.8143
vn -0.2502 -0.3568 0.9001
vn 0.3276 -0.0463 -0.9437
vn 0.1484 0.0549 -0.9874
vn 0.2978 0.0064 -0.9546
vn 0.4916 0.6637 -0.5637
vn 0.3708 0.8794 -0.2987
vn 0.0902 0.7386 -0.6681
vn -0.4892 0.2026 -0.8483
vn 0.2280 0.9667 -0.1164
vn 0.1527 0.9837 -0.0949
vn -0.2026 0.8361 -0.5098
vn 0.1907 0.4161 -0.8891
vn -0.8150 0.4935 -0.3036
vn 0.2704 0.8023 0.5321
vn 0.7835 -0.1367 0.6062
vn 0.7503 0.5030 0.4290
vn 0.1060 0.3762 0.9204
vn -0.6231 0.2647 0.7360
vn -0.3377 0.8239 0.4551
vn -0.1671 -0.1448 0.9752
vn 0.3857 -0.6505 0.6543
vn -0.1080 -0.3496 0.9306
vn 0.7124 0.1088 0.6933
vn 0.4627 0.7970 -0.3882
vn 0.6214 0.2454 -0.7441
vn 0.9071 0.0841 -0.4124
vn 0.9594 0.2814 0.0198
vn 0.9164 -0.1213 0.3815
vn 0.3702 -0.9209 0.1216
vn -0.2278 0.7121 0.6640
vn -0.9264 0.3758 -0.0248
vn -0.8727 -0.3822 -0.3038
vn 0.1134 -0.0888 -0.9896
vn -0.7007 0.7021 0.1266
vn 0.0101 0.6385 -0.7695
vn -0.0673 0.9835 -0.1680
vn 0.3356 0.8834 0.3271
vn 0.9061 -0.1856 -0.3802
vn 0.9728 -0.1254 -0.1948
vn 0.9681 0.2378 0.0790
vn 0.9376 -0.1071 0.3309
vn 0.9376 -0.1071 0.3308
vn -0.2605 -0.8220 -0.5064
vn 0.1133 -0.0889 -0.9896
vn 0.0406 0.9055 -0.4224
vn -0.7509 0.6174 0.2343
vn -0.3192 0.9459 0.0576
vn -0.9721 0.2152 0.0931
vn -0.9842 0.1429 0.1046
vn -0.8151 0.4935 -0.3036
vn 0.1522 -0.8640 0.4800
vn 0.9533 0.2963 -0.0578
vn -0.1342 0.9851 0.1073
vn -0.0731 0.2882 -0.9548
vn -0.9743 -0.1594 0.1590
vn 0.9818 0.1398 0.1282
vn -0.6858 0.5278 0.5011
vn -0.6725 0.4717 0.5703
vn -0.7397 0.3848 0.5521
vn -0.1654 -0.0755 -0.9833
vn 0.9840 0.0476 -0.1719
vn -0.0021 0.3817 0.9243
vn -0.9637 -0.2662 0.0186
vn -0.6725 0.4716 0.5703
vn -0.1152 -0.5918 -0.7978
vn -0.6761 -0.5942 0.4357
vn -0.1026 -0.4437 0.8903
vn -0.0822 0.7763 0.6249
vn 0.7966 -0.4604 0.3917
vn -0.7391 -0.6685 -0.0827
vn -0.2600 -0.8430 0.4708
vn -0.2571 0.4340 0.8635
vn 0.6978 -0.6559 0.2878
vn 0.5030 0.3993 0.7665
vn -0.9400 0.0952 0.3275
vn -0.3443 0.0190 0.9387
vn 0.2360 -0.9576 -0.1654
vn 0.8976 -0.3461 -0.2731
vn -0.6622 0.6840 -0.3060
vn 0.2148 0.4378 -0.8730
vn -0.9957 0.0866 0.0333
vn -0.4428 -0.6420 0.6259
vn 0.0087 -0.4688 0.8833
vn 0.9425 -0.3338 0.0155
vn -0.0270 -0.2614 -0.9648
vn -0.9229 0.1268 0.3636
vn 0.0432 0.2474 0.9679
vn 0.9608 -0.1083 -0.2552
vn -0.2575 0.3047 -0.9170
vn 0.9515 -0.1738 0.2537
vn -0.0068 -0.2530 0.9674
vn -0.3640 0.4478 0.8167
vn -0.8700 0.2504 0.4248
vn -0.8944 0.4471 -0.0144
vn 0.9510 -0.2181 -0.2190
vn 0.0991 0.2212 -0.9702
vn 0.5296 0.1682 -0.8314
vn -0.5811 0.4158 -0.6996
vn -0.9523 0.2570 -0.1646
vn -0.9806 0.1930 -0.0346
vn -0.7099 -0.2429 0.6611
vn -0.6541 -0.3492 0.6710
vn 0.4178 -0.6384 0.6465
vn 0.5685 -0.4861 0.6637
vn 0.9885 -0.0126 -0.1505
vn 0.2006 0.3531 -0.9138
vn -0.6691 0.3773 -0.6403
vn -0.9589 0.2794 0.0491
vn -0.6479 0.0409 0.7606
vn 0.5639 -0.1659 0.8090
vn -0.2404 0.8004 0.5491
vn 0.9343 0.3529 0.0502
vn 0.0590 0.9951 0.0787
vn 0.5684 0.7056 -0.4231
vn -0.6832 0.6359 -0.3589
vn -0.1922 -0.3128 0.9302
vn 0.8425 -0.2026 -0.4992
vn 0.9481 -0.1727 -0.2669
vn -0.2037 0.4055 -0.8911
vn -0.9149 0.2657 -0.3040
vn -0.9378 0.2613 -0.2288
vn -0.0159 -0.7527 0.6582
vn -0.9711 0.0047 0.2386
vn -0.1742 -0.6088 0.7739
vn 0.9923 -0.1223 -0.0183
vn -0.1361 -0.6300 0.7646
vn 0.0612 -0.9165 -0.3953
vn 0.2007 -0.4623 0.8637
vn -0.9577 -0.2165 -0.1893
vn -0.9683 -0.2141 -0.1289
vn -0.1847 0.2733 -0.9440
vn 0.9929 0.1123 -0.0392
vn 0.9502 0.1903 -0.2467
vn 0.6937 -0.7134 -0.0991
vn 0.3948 -0.4410 0.8060
vn -0.8822 -0.2923 -0.3692
vn -0.9272 -0.0803 -0.3659
vn -0.3761 0.4683 -0.7995
vn 0.8512 0.5244 -0.0236
vn 0.4175 0.5188 -0.7460
vn 0.9169 0.3545 0.1835
vn -0.2931 -0.4867 0.8229
vn -0.7501 -0.0592 -0.6586
vn -0.9384 -0.0792 0.3363
vn -0.3015 0.7112 -0.6351
vn -0.0731 0.5615 -0.8242
vn 0.9229 -0.2075 -0.3243
vn 0.6889 0.6743 -0.2660
vn -0.0397 -0.9887 0.1444
vn -0.0750 -0.7171 -0.6929
vn -0.8876 0.4549 0.0721
vn -0.5995 -0.7859 -0.1515
vn -0.1620 -0.4767 0.8640
vn -0.3936 -0.4321 0.8114
vn -0.9170 0.3289 0.2258
vn 0.2861 -0.5168 0.8068
vn 0.3697 -0.0180 0.9290
vn 0.3005 -0.5669 0.7670
vn 0.7885 0.2038 0.5803
vn 0.0218 -0.7603 0.6492
vn 0.9256 0.3602 -0.1168
vn -0.7457 -0.5868 0.3156
vn -0.5569 0.4640 -0.6889
vn -0.9099 -0.4144 -0.0202
vn -0.2469 0.5312 -0.8105
vn -0.5460 -0.8049 -0.2324
vn 0.5395 0.2913 -0.7900
vn 0.1400 -0.1528 -0.9783
vn -0.0952 -0.0218 -0.9952
vn -0.4857 0.4670 -0.7389
vn 0.8922 -0.2711 -0.3613
vn 0.8235 -0.5251 -0.2148
vn -0.3046 -0.7392 0.6007
vn 0.9835 -0.1271 -0.1289
vn -0.5960 -0.8025 0.0283
vn -0.0182 -0.6056 -0.7955
vn -0.6155 0.7856 0.0635
vn -0.6395 0.7435 -0.1957
vn 0.1529 0.6053 -0.7812
vn 0.2692 0.1201 -0.9556
vn 0.9858 0.1665 0.0205
vn -0.0059 0.3699 -0.9291
vn 0.9777 0.2010 0.0603
vn 0.1615 -0.2102 0.9642
vn -0.1868 -0.0690 0.9800
vn -0.9638 -0.2634 -0.0410
vn -0.8519 -0.4196 -0.3133
vn 0.1001 -0.1257 -0.9870
vn 0.1565 -0.0482 -0.9865
vn 0.9827 0.1519 -0.1058
vn -0.3061 -0.0432 0.9510
vn -0.4996 0.3571 -0.7892
vn -0.7790 0.1745 0.6023
vn 0.3124 0.5199 -0.7950
vn -0.8628 0.4719 -0.1814
vn 0.6713 0.3397 -0.6588
vn 0.4873 -0.7954 0.3604
vn 0.8099 -0.5805 0.0845
vn -0.2239 -0.6963 0.6819
vn 0.4465 -0.8875 -0.1137
vn -0.3662 -0.5131 0.7763
vn 0.9616 -0.1564 -0.2255
vn 0.9891 0.0637 -0.1329
vn -0.4436 0.8209 -0.3596
vn -0.2555 -0.8295 -0.4966
vn -0.2808 -0.8941 0.3489
vn -0.9905 0.1306 -0.0440
vn 0.0719 0.2377 -0.9687
vn 0.8586 -0.2335 -0.4564
vn -0.0789 -0.9158 -0.3938
vn 0.7444 -0.0755 -0.6634
vn -0.9958 -0.0882 -0.0248
vn 0.3114 0.6777 -0.6661
vn 0.0696 0.5346 -0.8423
vn 0.9971 0.0751 -0.0141
vn -0.6942 0.2985 -0.6550
vn 0.9600 -0.2225 0.1698
vn 0.6176 0.7784 -0.1124
vn 0.0244 -0.9912 0.1302
vn 0.0009 -0.7930 -0.6092
vn -0.9335 0.3179 -0.1658
vn -0.1197 0.0146 -0.9927
vn -0.9625 0.2707 0.0179
vn 0.2264 -0.0182 0.9739
vn 0.9286 -0.3370 -0.1552
vn 0.8817 -0.4055 -0.2411
vn -0.0896 -0.2096 -0.9737
vn -0.0835 -0.0620 -0.9946
vn -0.9730 0.1847 -0.1388
vn 0.1316 -0.6338 0.7622
vn 0.9461 -0.0945 0.3098
vn 0.1503 -0.5990 0.7865
vn -0.0102 -0.7569 0.6534
vn 0.0979 -0.0164 -0.9951
vn -0.1351 -0.1528 -0.9790
vn 0.1950 -0.6255 0.7554
vn 0.2466 -0.9032 0.3512
vn 0.4423 0.8201 -0.3630
vn 0.0458 -0.8393 -0.5417
vn -0.9847 0.1014 -0.1416
vn -0.1916 -0.6192 0.7615
vn -0.9279 0.1627 -0.3356
vn 0.1827 -0.8388 0.5129
vn 0.6510 -0.7590 -0.0065
vn 0.2066 0.9699 -0.1293
vn 0.0662 -0.6169 -0.7843
vn -0.8788 -0.4765 -0.0275
vn -0.8639 0.4033 0.3017
vn -0.9269 -0.2933 -0.2341
vn -0.1079 -0.3849 0.9166
vn 0.4817 0.0494 0.8749
vn 0.9663 0.2571 0.0120
vn 0.9795 0.1439 0.1407
vn -0.0742 0.0799 -0.9940
vn 0.5437 0.4186 -0.7274
vn -0.4420 0.2413 -0.8640
vn -0.1944 0.3767 -0.9057
vn -0.9835 -0.0051 -0.1810
vn -0.2490 0.3926 -0.8854
vn -0.6763 0.6037 -0.4222
vn 0.5846 0.6571 -0.4759
vn 0.0033 0.9804 -0.1970
vn -0.1967 0.8861 0.4196
vn -0.9945 0.0964 0.0409
vn -0.5633 -0.2429 0.7898
vn -0.6550 -0.3998 0.6412
vn 0.5810 -0.3388 0.7400
vn -0.5625 -0.5371 0.6286
vn -0.9177 -0.3504 -0.1874
vn 0.9619 0.2435 -0.1247
vn 0.8740 0.4656 0.1390
vn 0.6594 0.0225 0.7514
vn -0.9483 -0.1161 -0.2955
vn -0.9694 -0.1920 -0.1529
vn -0.9857 -0.1206 0.1180
vn -0.4782 -0.1566 0.8642
vn -0.4143 -0.2189 0.8834
vn -0.4713 -0.2639 0.8416
vn 0.4769 -0.2187 0.8513
vn 0.2903 -0.2799 0.9151
vn 0.9977 -0.0465 0.0503
vn 0.4005 -0.1138 0.9092
vn 0.9997 -0.0235 0.0052
vn 0.3852 -0.7201 0.5771
vn 0.6180 -0.7103 -0.3370
vn -0.4364 -0.1396 0.8889
vn -0.9609 -0.0962 0.2597
vn -0.4612 -0.4979 0.7344
vn 0.4230 -0.0110 0.9061
vn 0.9851 -0.1192 0.1238
vn -0.5628 -0.8084 -0.1723
vn 0.8140 -0.1074 0.5708
vn -0.7347 -0.4740 0.4853
vn -0.0062 0.9706 0.2406
vn -0.7376 0.5533 0.3871
vn -0.9463 -0.2477 -0.2079
vn -0.5029 -0.8297 0.2422
vn 0.7801 -0.5639 -0.2710
vn 0.7344 -0.6260 0.2624
vn 0.7772 0.5722 0.2618
vn 0.0468 -0.1110 0.9927
vn 0.0493 0.6831 0.7287
vn 0.0201 0.9579 0.2864
vn 0.9541 0.1683 -0.2479
vn 0.8329 -0.1604 -0.5296
vn 0.1379 -0.7059 -0.6947
vn 0.3849 -0.3294 -0.8622
vn -0.7529 -0.6038 -0.2617
vn 0.0304 -0.6605 -0.7502
vn 0.9451 -0.2492 -0.2114
vn -0.2730 0.1006 -0.9567
vn -0.9507 0.1502 -0.2712
vn -0.7959 0.5391 0.2757
vn -0.8413 -0.1678 0.5138
vn 0.0039 0.9697 0.2441
vn 0.7864 -0.4022 0.4688
vn 0.7382 0.5516 0.3883
vn 0.5046 -0.8305 0.2361
vn -0.7261 -0.6439 0.2413
vn -0.0627 -0.1274 0.9899
vn -0.0561 0.6852 0.7262
vn -0.0269 0.9578 0.2861
vn -0.0304 -0.6605 -0.7502
vn 0.3097 0.1355 -0.9411
vn -0.7045 -0.7081 -0.0471
vn 0.0686 -0.7695 -0.6350
vn -0.0837 -0.6972 -0.7120
vn 0.6752 -0.7303 -0.1041
vn -0.6086 -0.7746 -0.1718
vn -0.7588 -0.6186 -0.2040
vn 0.8022 -0.5932 -0.0674
vn -0.3610 -0.7166 0.5968
vn 0.5181 -0.4221 0.7439
vn 0.1128 -0.6346 -0.7646
vn 0.9541 0.0867 0.2867
vn 0.1994 -0.0610 0.9780
vn 0.3784 -0.2047 0.9027
vn -0.3378 -0.3223 0.8843
vn -0.2547 -0.3211 0.9122
vn 0.4266 -0.2815 0.8595
vn -0.1966 -0.0609 0.9786
vn 0.4936 -0.1366 0.8589
vn -0.4129 -0.0283 0.9103
vn -0.9469 0.0565 0.3165
vn 0.0643 -0.9403 0.3343
vn 0.9801 -0.1252 -0.1539
vn -0.9904 -0.1262 0.0571
vn 0.6005 -0.7920 -0.1099
vn -0.4844 -0.8621 0.1489
vn 0.6642 -0.6231 -0.4130
vn 0.6784 0.1573 -0.7176
vn -0.1388 -0.8302 -0.5399
vn 0.1018 -0.9854 -0.1363
vn -0.7559 0.1519 -0.6368
vn -0.2774 -0.9081 -0.3136
vn -0.3980 -0.5760 -0.7140
vn 0.4384 -0.5525 -0.7089
vn -0.7301 0.0490 -0.6816
vn 0.3374 0.1598 -0.9277
vn -0.6929 0.1437 -0.7066
vn 0.2186 0.0551 -0.9743
vn 0.1765 -0.1142 -0.9777
vn -0.1667 -0.1126 -0.9796
vn -0.2043 0.0340 -0.9783
vn 0.7013 0.1290 -0.7011
vn -0.3244 0.1117 -0.9393
vn 0.7458 0.0305 -0.6655
vn 0.9653 -0.0761 0.2498
vn 0.9891 -0.0987 0.1089
vn -0.9992 -0.0259 0.0294
vn -0.9955 -0.0831 0.0453
vn 0.4301 -0.2163 0.8765
vn 0.4844 -0.2734 0.8310
vn 0.4357 -0.1560 0.8865
vn -0.3925 -0.1430 0.9086
vn -0.4560 -0.2323 0.8591
vn -0.2858 -0.3128 0.9058
vt 0.127273 0.147727
vt 0.200000 0.409091
vt 0.036364 0.454545
vt 0.018182 0.761364
vt 0.290909 0.613636
vt 0.436364 0.863636
vt 0.763636 0.647727
vt 0.727273 0.886364
vt 0.927273 0.647727
vt 0.945455 0.863636
vt 0.745455 0.988636
vt 0.636364 1.000000
vt 0.309091 0.931818
vt 0.200000 0.920455
vt 0.000000 0.829545
vt 0.018182 0.840909
vt 0.763636 0.420455
vt 0.472727 0.000000
vt 0.854545 0.352273
vt 0.763636 0.136364
vt 0.672727 0.147727
vt 0.836364 0.954545
vt 0.254545 0.147727
vt 0.909091 0.522727
vt 0.181818 0.875000
vt 0.788732 0.855670
vt 0.929577 0.680412
vt 0.985915 0.804124
vt 0.985915 0.721649
vt 0.985915 0.639175
vt 0.957746 0.360825
vt 0.985915 0.525773
vt 0.746479 0.278351
vt 0.633803 0.494845
vt 0.492958 0.412371
vt 0.591549 0.546392
vt 0.450704 0.432990
vt 0.408451 0.494845
vt 0.352113 0.226804
vt 0.281690 0.422680
vt 0.197183 0.278351
vt 0.070423 0.628866
vt 0.028169 0.628866
vt 0.000000 0.773196
vt 0.000000 0.824742
vt 0.056338 0.762887
vt 0.098592 0.886598
vt 0.140845 0.793814
vt 0.295775 0.969072
vt 0.253521 0.783505
vt 0.366197 0.835052
vt 0.239437 0.608247
vt 0.338028 0.649485
vt 0.281690 0.061856
vt 0.084507 0.247423
vt 0.014085 0.453608
vt 0.000000 0.525773
vt 0.000000 0.587629
vt 0.000000 0.835052
vt 0.098592 0.948454
vt 0.183099 0.989691
vt 0.309859 1.000000
vt 0.873239 0.556701
vt 0.760563 0.752577
vt 0.633803 0.628866
vt 0.633803 0.690722
vt 0.859155 0.000000
vt 0.704225 0.030928
vt 0.450704 0.216495
vt 0.507042 0.010309
vt 0.422535 0.257732
vt 0.140845 0.597938
vt 0.309859 0.577320
vt 0.464789 0.721649
vt 1.000000 0.804124
vt 0.169014 0.000000
vt 0.200000 0.192308
vt 0.000000 0.000000
vt 0.257143 0.038462
vt 0.000000 0.230769
vt 0.000000 0.653846
vt 0.085714 0.884615
vt 0.400000 0.692308
vt 0.628571 0.423077
vt 0.257143 0.884615
vt 0.400000 1.000000
vt 0.542857 0.884615
vt 0.857143 0.461538
vt 0.971429 0.346154
vt 0.549296 0.817073
vt 0.816901 0.341463
vt 0.971831 0.682927
vt 0.535211 0.597561
vt 0.112676 0.475610
vt 0.084507 0.902439
vt 0.422535 1.000000
vt 0.563380 0.926829
vt 0.704225 0.926829
vt 0.422535 0.268293
vt 0.169014 0.060976
vt 0.605634 0.134146
vt 0.098592 0.256098
vt 0.732394 0.134146
vt 0.492958 0.000000
vt 0.000000 0.292683
vt 0.788732 0.219512
vt 0.511628 0.650000
vt 0.837209 0.750000
vt 0.837209 0.850000
vt 0.976744 0.475000
vt 0.953488 0.625000
vt 0.837209 0.450000
vt 0.674419 0.600000
vt 0.418605 0.425000
vt 0.627907 0.250000
vt 0.488372 0.175000
vt 0.813953 0.300000
vt 0.139535 0.000000
vt 0.000000 0.175000
vt 0.744186 1.000000
vt 0.514286 0.200000
vt 0.828571 0.250000
vt 0.542857 0.050000
vt 1.000000 0.350000
vt 0.685714 0.450000
vt 0.828571 0.750000
vt 0.571429 0.800000
vt 0.628571 1.000000
vt 0.600000 0.650000
vt 0.685714 0.350000
vt 0.800000 0.150000
vt 0.314286 0.850000
vt 0.514286 1.000000
vt 0.000000 0.350000
vt 0.542857 0.000000
vt 0.657143 0.000000
vt 0.400000 0.944444
vt 0.418182 1.000000
vt 0.654545 0.861111
vt 0.563636 0.916667
vt 0.236364 0.611111
vt 0.363636 0.638889
vt 0.218182 0.555556
vt 0.418182 0.472222
vt 0.272727 0.444444
vt 0.418182 0.555556
vt 0.218182 0.583333
vt 0.200000 0.694444
vt 0.109091 0.472222
vt 0.145455 0.277778
vt 0.145455 0.305556
vt 0.672727 0.388889
vt 0.727273 0.694444
vt 0.818182 0.194444
vt 0.963636 0.250000
vt 0.000000 0.333333
vt 0.109091 0.250000
vt 0.200000 0.222222
vt 0.145455 0.194444
vt 0.781818 0.000000
vt 0.109091 0.138889
vt 0.145455 0.166667
vt 0.527273 1.000000
vt 0.093023 0.000000
vt 0.511628 0.040816
vt 0.139535 0.224490
vt 0.186047 0.000000
vt 0.093023 0.387755
vt 0.720930 0.326531
vt 0.139535 0.612245
vt 0.000000 0.367347
vt 0.744186 0.489796
vt 0.976744 0.448980
vt 0.860465 1.000000
vt 0.767442 0.387755
vt 0.720930 0.530612
vt 0.837209 0.102041
vt 0.511628 0.183673
vt 0.302326 0.755102
vt 0.325581 0.102041
vt 0.976744 0.693878
vt 0.372093 0.795918
vt 0.488372 1.000000
vt 0.272727 0.055556
vt 0.000000 0.083333
vt 0.454545 0.250000
vt 0.181818 0.222222
vt 0.363636 0.194444
vt 0.545455 0.222222
vt 0.454545 0.416667
vt 0.272727 0.500000
vt 0.636364 0.555556
vt 0.818182 0.472222
vt 0.272727 0.694444
vt 0.454545 1.000000
vt 0.454545 0.805556
vt 0.000000 0.096774
vt 0.133333 0.290323
vt 0.466667 0.193548
vt 0.400000 0.258065
vt 0.800000 0.709677
vt 0.200000 0.225806
vt 0.533333 0.774194
vt 0.000000 0.258065
vt 0.333333 0.741935
vt 0.600000 0.741935
vt 0.333333 0.000000
vt 0.866667 1.000000
vt 0.666667 0.935484
vt 0.684211 0.428571
vt 0.421053 0.244898
vt 0.578947 0.469388
vt 0.368421 0.489796
vt 0.210526 0.428571
vt 0.421053 0.673469
vt 0.263158 0.142857
vt 0.526316 0.653061
vt 0.421053 0.122449
vt 0.736842 0.653061
vt 0.842105 0.653061
vt 0.736842 0.734694
vt 0.526316 0.734694
vt 0.421053 0.897959
vt 0.578947 0.836735
vt 0.736842 0.877551
vt 0.684211 0.959184
vt 0.842105 0.959184
vt 0.684211 1.000000
vt 0.578947 0.959184
vt 0.789474 0.836735
vt 0.105263 0.183673
vt 0.263158 0.020408
vt 0.421053 0.000000
vt 0.526316 0.163265
vt 0.210526 0.061224
vt 0.000000 0.061224
vt 0.641026 0.082192
vt 0.615385 0.068493
vt 0.641026 0.150685
vt 0.589744 0.136986
vt 0.512821 0.232877
vt 0.538462 0.287671
vt 0.487179 0.287671
vt 0.410256 0.301370
vt 0.435897 0.232877
vt 0.384615 0.123288
vt 0.410256 0.246575
vt 0.282051 0.136986
vt 0.333333 0.260274
vt 0.358974 0.315068
vt 0.307692 0.328767
vt 0.282051 0.273973
vt 0.179487 0.205479
vt 0.256410 0.301370
vt 0.102564 0.219178
vt 0.282051 0.342466
vt 0.461538 0.506849
vt 0.641026 0.397260
vt 0.589744 0.287671
vt 0.615385 0.232877
vt 0.564103 0.246575
vt 0.589744 0.164384
vt 0.589744 0.082192
vt 0.589744 0.054795
vt 0.641026 0.027397
vt 0.666667 0.095890
vt 0.666667 0.054795
vt 0.435897 0.301370
vt 0.333333 0.328767
vt 0.435897 0.506849
vt 0.615385 0.493151
vt 0.794872 0.369863
vt 0.846154 0.383562
vt 0.923077 0.315068
vt 0.948718 0.315068
vt 0.871795 0.232877
vt 0.871795 0.328767
vt 0.794872 0.410959
vt 0.769231 0.369863
vt 0.692308 0.493151
vt 0.666667 0.383562
vt 0.410256 0.328767
vt 0.307692 0.342466
vt 0.307692 0.273973
vt 0.205128 0.205479
vt 0.128205 0.205479
vt 0.076923 0.150685
vt 0.051282 0.150685
vt 0.102564 0.246575
vt 0.025641 0.178082
vt 0.128205 0.232877
vt 0.820513 1.000000
vt 0.717949 0.972603
vt 0.820513 0.972603
vt 0.641026 0.876712
vt 0.846154 0.958904
vt 0.692308 0.698630
vt 0.948718 0.821918
vt 0.794872 0.684932
vt 0.769231 0.821918
vt 0.692308 0.684932
vt 0.615385 0.726027
vt 0.820513 0.383562
vt 0.769231 0.397260
vt 0.871795 0.219178
vt 0.871795 0.315068
vt 0.897436 0.315068
vt 0.384615 0.136986
vt 0.307692 0.013699
vt 0.230769 0.027397
vt 0.282051 0.041096
vt 0.256410 0.000000
vt 0.307692 0.150685
vt 0.410256 0.260274
vt 0.435897 0.246575
vt 0.512821 0.287671
vt 0.615385 0.301370
vt 0.538462 0.232877
vt 0.589744 0.246575
vt 0.615385 0.178082
vt 0.641026 0.164384
vt 0.692308 0.054795
vt 0.641026 0.041096
vt 0.692308 0.095890
vt 0.615385 0.054795
vt 0.948718 0.931507
vt 0.794872 0.958904
vt 0.794872 0.986301
vt 0.692308 0.972603
vt 0.589744 0.876712
vt 0.846154 0.945205
vt 0.666667 0.698630
vt 0.897436 0.821918
vt 0.743590 0.684932
vt 0.743590 0.821918
vt 0.666667 0.684932
vt 0.538462 0.712329
vt 0.564103 0.287671
vt 0.615385 0.150685
vt 0.615385 0.082192
vt 0.384615 0.315068
vt 0.307692 0.123288
vt 0.256410 0.027397
vt 0.282051 0.013699
vt 0.333333 0.123288
vt 0.358974 0.260274
vt 0.102564 0.191781
vt 0.025641 0.136986
vt 0.000000 0.178082
vt 0.102564 0.232877
vt 0.230769 0.301370
vt 0.526316 0.000000
vt 0.736842 0.037736
vt 0.473684 0.150943
vt 0.736842 0.169811
vt 0.842105 0.207547
vt 0.789474 0.452830
vt 0.473684 0.283019
vt 0.631579 0.490566
vt 0.368421 0.471698
vt 0.210526 0.735849
vt 0.052632 0.641509
vt 0.105263 0.867925
vt 0.157895 0.962264
vt 0.421053 0.943396
vt 0.157895 1.000000
vt 0.105263 1.000000
vt 0.000000 0.924528
vt 0.210526 0.811321
vt 0.157895 0.566038
vt 0.473684 0.622642
vt 0.263158 0.339623
vt 0.315789 0.188679
vt 0.789474 0.094340
vt 1.000000 0.056604
vt 0.421053 0.716981
vt 0.631579 0.660377
vt 0.526316 0.905660
vt 0.421053 0.811321
vt 0.157895 0.433962
vt 0.000000 0.916667
vt 0.200000 0.645833
vt 0.400000 0.958333
vt 0.466667 0.729167
vt 0.466667 0.604167
vt 0.866667 0.750000
vt 0.800000 0.604167
vt 1.000000 0.645833
vt 0.800000 0.312500
vt 1.000000 0.333333
vt 0.800000 0.000000
vt 0.933333 0.000000
vt 0.466667 0.291667
vt 0.200000 0.333333
vt 0.533333 0.000000
vt 0.800000 1.000000
vt 1.000000 0.958333
vt 0.574468 0.941176
vt 0.617021 0.941176
vt 0.446809 0.823529
vt 0.148936 0.529412
vt 0.765957 0.000000
vt 0.148936 0.000000
vt 0.191489 0.000000
vt 0.191489 0.529412
vt 0.000000 0.058824
vt 0.042553 0.529412
vt 0.170213 0.705882
vt 0.765957 0.470588
vt 0.765957 0.941176
vt 0.936170 0.941176
vt 0.765957 1.000000
vt 0.978723 0.000000
vt 0.957447 0.470588
vt 0.765957 0.529412
vt 0.744681 0.941176
vt 0.553191 0.941176
vt 0.531915 1.000000
vt 0.978723 0.941176
vt 0.744681 1.000000
vt 0.531915 0.941176
vt 0.553191 1.000000
vt 0.978723 1.000000
vt 0.963636 0.032258
vt 0.909091 0.774194
vt 0.872727 0.096774
vt 0.690909 0.467742
vt 0.690909 0.661290
vt 0.545455 0.467742
vt 0.236364 0.661290
vt 0.363636 0.467742
vt 0.236364 0.483871
vt 0.290909 0.048387
vt 0.090909 0.096774
vt 0.890909 0.903226
vt 0.709091 0.935484
vt 0.472727 0.919355
vt 0.181818 1.000000
vt 0.018182 0.774194
vt 0.054545 0.903226
vt 0.672727 0.048387
vt 0.509091 0.000000
vt 0.454545 0.290323
vt 0.000000 0.032258
vt 0.490909 0.129032
vt 0.636364 0.016129
vt 0.290909 0.032258
vt 0.000000 0.026316
vt 0.051282 0.000000
vt 0.051282 0.842105
vt 0.153846 0.789474
vt 0.256410 0.026316
vt 0.487179 0.710526
vt 0.666667 0.026316
vt 0.820513 0.789474
vt 0.846154 0.000000
vt 0.923077 0.026316
vt 0.794872 0.078947
vt 0.615385 0.184211
vt 0.307692 0.184211
vt 0.128205 0.078947
vt 0.743590 1.000000
vt 0.871795 0.973684
vt 0.897436 0.842105
vt 0.076923 0.973684
vt 0.230769 1.000000
vt 0.105263 0.016129
vt 0.157895 0.387097
vt 0.368421 0.016129
vt 0.421053 0.387097
vt 0.157895 0.564516
vt 0.421053 0.548387
vt 0.210526 0.854839
vt 0.473684 0.822581
vt 0.578947 0.919355
vt 0.842105 0.790323
vt 0.842105 1.000000
vt 0.894737 0.919355
vt 0.578947 0.854839
vt 0.842105 0.725806
vt 0.473684 0.758065
vt 0.263158 0.790323
vt 0.421053 0.500000
vt 0.157895 0.516129
vt 0.368421 0.306452
vt 0.157895 0.290323
vt 0.368421 0.000000
vt 0.105263 0.000000
vt 0.684211 0.500000
vt 0.684211 0.274194
vt 0.578947 0.000000
vt 0.052632 0.758065
vt 0.052632 0.516129
vt 0.052632 0.274194
vt 0.578947 0.016129
vt 0.684211 0.354839
vt 0.684211 0.564516
vt 0.000000 0.354839
vt 0.000000 0.564516
vt 0.000000 0.822581
vt 0.526316 0.725490
vt 0.526316 0.960784
vt 0.684211 0.627451
vt 0.473684 0.607843
vt 0.684211 0.392157
vt 0.473684 0.352941
vt 0.473684 0.000000
vt 0.210526 0.372549
vt 0.263158 0.000000
vt 0.052632 0.392157
vt 0.157895 0.745098
vt 0.000000 0.647059
vt 0.210526 0.607843
vt 0.000000 0.941176
vt 0.842105 0.901961
vt 0.631579 0.000000
s 1
usemtl SCIZOM3_Back1.bmp
f 1/1/1 2/2/2 3/3/3
f 3/3/3 2/2/2 4/4/4
f 2/2/2 5/5/5 4/4/4
f 4/4/4 5/5/5 6/6/6
f 5/5/5 7/7/7 6/6/6
f 6/6/6 7/7/7 8/8/8
f 7/7/7 9/9/9 8/8/8
f 8/8/8 9/9/9 10/10/10
f 11/11/11 12/12/12 8/8/8
f 8/8/8 12/12/12 6/6/6
f 12/12/12 13/13/5 6/6/6
f 6/6/6 13/13/5 4/4/4
f 13/13/5 14/14/13 4/4/4
f 4/4/4 14/14/13 15/15/14
f 14/14/13 16/16/15 15/15/14
f 17/17/16 2/2/2 18/18/17
f 17/17/16 5/5/5 2/2/2
f 17/17/16 7/7/7 5/5/5
f 17/17/16 19/19/18 7/7/7
f 17/17/16 20/20/19 19/19/18
f 17/17/16 21/21/20 20/20/19
f 17/17/16 18/18/17 21/21/20
f 10/10/10 22/22/21 8/8/8
f 8/8/8 22/22/21 11/11/11
f 18/18/17 2/2/2 23/23/22
f 23/23/22 2/2/2 1/1/1
f 19/19/18 24/24/23 7/7/7
f 7/7/7 24/24/23 9/9/9
f 14/14/13 25/25/24 16/16/15
usemtl SCIZOM3_Chest1.bmp
f 25/26/24 26/27/25 16/28/15
f 16/28/15 26/27/25 27/29/26
f 26/27/25 28/30/27 27/29/26
f 27/29/26 28/30/27 3/31/3
f 28/30/27 29/32/28 3/31/3
f 3/31/3 29/32/28 30/33/29
f 29/32/28 31/34/30 30/33/29
f 30/33/29 31/34/30 32/35/31
f 31/34/30 33/36/32 32/35/31
f 32/35/31 33/36/32 34/37/33
f 33/36/32 35/38/34 34/37/33
f 34/37/33 35/38/34 36/39/35
f 35/38/34 37/40/36 36/39/35
f 36/39/35 37/40/36 38/41/37
f 37/40/36 39/42/38 38/41/37
f 38/41/37 39/42/38 40/43/39
f 39/42/38 41/44/40 40/43/39
f 40/43/39 41/44/40 42/45/41
f 41/44/40 43/46/42 42/45/41
f 42/45/41 43/46/42 44/47/43
f 43/46/42 45/48/44 44/47/43
f 44/47/43 45/48/44 46/49/45
f 45/48/44 47/50/46 46/49/45
f 46/49/45 47/50/46 48/51/47
f 47/50/46 49/52/48 48/51/47
f 48/51/47 49/52/48 50/53/49
f 51/54/50 38/41/37 19/55/18
f 19/55/18 38/41/37 24/56/23
f 38/41/37 52/57/51 24/56/23
f 24/56/23 52/57/51 9/58/9
f 52/57/51 42/45/41 9/58/9
f 9/58/9 42/45/41 10/59/10
f 42/45/41 44/47/43 10/59/10
f 10/59/10 44/47/43 22/60/21
f 44/47/43 46/49/45 22/60/21
f 22/60/21 46/49/45 11/61/11
f 46/49/45 12/62/12 11/61/11
f 53/63/52 26/27/25 54/64/53
f 53/63/52 28/30/27 26/27/25
f 53/63/52 29/32/28 28/30/27
f 53/63/52 31/34/30 29/32/28
f 53/63/52 55/65/54 31/34/30
f 53/63/52 56/66/55 55/65/54
f 53/63/52 54/64/53 56/66/55
f 3/31/3 30/33/29 1/67/1
f 1/67/1 30/33/29 57/68/56
f 30/33/29 58/69/57 57/68/56
f 57/68/56 58/69/57 59/70/58
f 58/69/57 60/71/59 59/70/58
f 59/70/58 60/71/59 36/39/35
f 60/71/59 34/37/33 36/39/35
f 43/46/42 61/72/60 45/48/44
f 45/48/44 61/72/60 49/52/48
f 61/72/60 37/40/36 49/52/48
f 49/52/48 37/40/36 62/73/61
f 37/40/36 35/38/34 62/73/61
f 62/73/61 35/38/34 63/74/62
f 35/38/34 56/66/55 63/74/62
f 31/34/30 55/65/54 33/36/32
f 33/36/32 55/65/54 35/38/34
f 55/65/54 56/66/55 35/38/34
f 60/71/59 58/69/57 34/37/33
f 34/37/33 58/69/57 32/35/31
f 58/69/57 30/33/29 32/35/31
f 16/28/15 27/29/26 15/75/14
f 15/75/14 27/29/26 4/29/4
f 27/29/26 3/31/3 4/29/4
f 41/44/40 39/42/38 43/46/42
f 43/46/42 39/42/38 61/72/60
f 39/42/38 37/40/36 61/72/60
f 38/41/37 40/43/39 52/57/51
f 52/57/51 40/43/39 42/45/41
f 59/70/58 36/39/35 51/54/50
f 51/54/50 36/39/35 38/41/37
f 48/51/47 62/73/61 63/74/62
f 25/26/24 54/64/53 26/27/25
f 19/55/18 20/76/19 51/54/50
f 49/52/48 47/50/46 45/48/44
usemtl ZOM2_CrabButt1.bmp
f 64/77/63 14/78/13 13/79/64
f 64/77/63 65/80/65 14/78/13
f 64/77/63 66/81/66 65/80/65
f 64/77/63 67/82/67 66/81/66
f 64/77/63 68/83/68 67/82/67
f 64/77/63 69/84/69 68/83/68
f 64/77/63 13/79/64 69/84/69
f 70/85/70 68/83/68 71/86/71
f 71/86/71 68/83/68 72/87/72
f 68/83/68 69/84/69 72/87/72
f 72/87/72 69/84/69 73/88/73
f 69/84/69 12/89/74 73/88/73
f 68/83/68 70/85/70 67/82/67
f 13/79/64 12/89/74 69/84/69
usemtl ZOM2_Face1.bmp
f 74/90/75 75/91/76 76/92/77
f 74/90/75 77/93/78 75/91/76
f 74/90/75 78/94/79 77/93/78
f 74/90/75 79/95/80 78/94/79
f 74/90/75 71/96/71 79/95/80
f 74/90/75 70/97/70 71/96/71
f 74/90/75 67/98/67 70/97/70
f 74/90/75 76/92/77 67/98/67
f 80/99/81 63/100/62 81/101/82
f 80/99/81 82/102/83 63/100/62
f 80/99/81 78/94/79 82/102/83
f 80/99/81 77/93/78 78/94/79
f 80/99/81 75/91/76 77/93/78
f 80/99/81 81/101/82 75/91/76
f 75/91/76 81/101/82 54/103/53
f 54/103/53 81/101/82 56/104/55
f 81/101/82 63/100/62 56/104/55
f 63/100/62 82/102/83 48/105/47
f 75/91/76 54/103/53 83/106/84
usemtl ZOM2_CrabSide1.bmp
f 76/107/77 84/108/85 66/109/66
f 66/109/66 84/108/85 65/110/65
f 84/108/85 85/111/86 65/110/65
f 65/110/65 85/111/86 86/112/87
f 85/111/86 87/113/88 86/112/87
f 86/112/87 87/113/88 88/114/89
f 87/113/88 76/107/77 88/114/89
f 88/114/89 76/107/77 89/115/90
f 76/107/77 25/116/24 89/115/90
f 89/115/90 25/116/24 65/110/65
f 25/116/24 14/117/13 65/110/65
f 76/107/77 87/113/88 84/108/85
f 84/108/85 87/113/88 85/111/86
f 83/118/84 25/116/24 75/119/76
f 75/119/76 25/116/24 76/107/77
f 76/107/77 66/109/66 67/120/67
f 86/112/87 88/114/89 89/115/90
usemtl ZOM2_CrabFoot1.bmp
f 90/121/91 91/122/92 92/123/93
f 92/123/93 91/122/92 93/124/94
f 91/122/92 94/125/95 93/124/94
f 93/124/94 94/125/95 95/126/96
f 94/125/95 96/127/97 95/126/96
f 95/126/96 96/127/97 97/128/98
f 96/127/97 98/129/99 97/128/98
f 97/128/98 98/129/99 95/126/96
f 98/129/99 99/130/100 95/126/96
f 95/126/96 99/130/100 93/124/94
f 99/130/100 100/131/101 93/124/94
f 98/129/99 96/127/97 86/132/87
f 86/132/87 96/127/97 65/133/65
f 96/127/97 99/130/100 65/133/65
f 65/133/65 99/130/100 89/134/90
f 99/130/100 98/129/99 89/134/90
f 89/134/90 98/129/99 86/132/87
f 91/122/92 90/121/91 94/125/95
f 94/125/95 90/121/91 99/130/100
f 90/121/91 101/135/102 99/130/100
f 99/130/100 101/135/102 100/131/101
f 101/135/103 102/136/104 93/124/94
f 93/124/94 102/136/104 92/123/93
f 93/124/105 101/135/102 100/131/101
usemtl ZOM2_CrabSide2.bmp
f 72/137/72 103/138/106 79/139/80
f 79/139/80 103/138/106 104/140/107
f 103/138/106 105/141/108 104/140/107
f 104/140/107 105/141/108 106/142/109
f 105/141/108 107/143/110 106/142/109
f 106/142/109 107/143/110 12/144/111
f 107/143/110 108/145/112 12/144/111
f 12/144/111 108/145/112 73/146/73
f 108/145/112 109/147/113 73/146/73
f 73/146/73 109/147/113 105/141/108
f 109/147/113 110/148/114 105/141/108
f 105/141/108 110/148/114 107/143/110
f 110/148/114 111/149/115 107/143/110
f 107/143/110 111/149/115 112/150/116
f 111/149/115 113/151/117 112/150/116
f 112/150/116 113/151/117 108/145/112
f 113/151/117 109/147/113 108/145/112
f 12/144/111 46/152/118 106/142/109
f 106/142/109 46/152/118 104/140/107
f 46/152/118 114/153/119 104/140/107
f 104/140/107 114/153/119 79/139/80
f 114/153/119 115/154/120 79/139/80
f 79/139/80 115/154/120 78/155/79
f 116/156/121 113/151/117 117/157/122
f 117/157/122 113/151/117 118/158/123
f 113/151/117 112/150/116 118/158/123
f 118/158/123 112/150/116 119/159/124
f 113/151/117 116/156/121 111/149/115
f 111/149/115 116/156/121 112/150/116
f 116/156/121 119/157/124 112/150/116
f 79/139/80 46/152/118 114/153/125
f 114/153/119 46/152/45 115/154/120
f 46/152/45 48/160/47 115/154/120
f 105/141/108 103/138/106 73/146/73
f 73/146/73 103/138/106 72/137/72
f 113/151/117 111/149/115 109/147/113
f 109/147/113 111/149/115 110/148/114
f 119/159/124 116/156/121 120/161/126
f 120/161/126 116/156/121 117/162/122
f 71/163/71 72/137/72 79/139/80
f 73/146/73 12/144/111 46/152/118
f 112/150/116 108/145/112 107/143/110
usemtl ZOM2_Teeth1.bmp
f 121/164/127 122/165/128 123/166/129
f 123/166/129 122/165/128 124/167/130
f 125/168/131 126/169/132 127/170/133
f 127/170/133 126/169/132 128/171/134
f 129/172/135 130/173/136 131/174/137
f 131/174/137 130/173/136 132/175/138
f 122/176/128 121/177/127 124/178/130
f 126/179/132 125/180/131 128/78/134
f 131/181/137 132/182/138 129/183/135
usemtl ZOM2_CClaws3.bmp
f 133/184/139 134/185/140 135/186/141
f 135/186/141 134/185/140 136/187/142
f 134/185/140 137/78/143 136/187/142
f 136/187/142 137/78/143 138/188/144
f 137/78/143 133/184/139 138/188/144
f 138/188/144 133/184/139 139/189/145
f 133/184/139 135/186/141 139/189/145
f 139/189/145 135/186/141 140/190/146
f 135/186/141 136/187/142 140/190/146
f 140/190/146 136/187/142 141/191/147
f 136/187/142 138/188/144 141/191/147
f 141/191/147 138/188/144 142/192/148
f 138/188/144 139/189/145 142/192/148
f 142/192/148 139/189/145 143/193/149
f 139/189/145 140/190/146 143/193/149
f 143/193/149 140/190/146 54/194/53
f 140/190/146 141/191/147 54/194/53
f 54/194/53 141/191/147 142/192/148
f 25/195/24 83/196/84 143/193/149
f 143/193/149 83/196/84 142/192/148
f 83/196/84 54/194/53 142/192/148
f 143/193/149 54/194/53 25/195/24
usemtl ZOM2_CClaws2.bmp
f 49/197/48 144/198/150 50/199/49
f 50/199/49 144/198/150 145/200/151
f 144/198/150 82/201/83 145/200/151
f 145/200/151 82/201/83 146/202/152
f 82/201/83 147/203/153 146/202/152
f 146/202/152 147/203/153 148/204/154
f 147/203/153 149/205/155 148/204/154
f 148/204/154 149/205/155 144/198/150
f 149/205/155 48/206/47 144/198/150
f 144/198/150 48/206/47 82/201/83
f 144/198/150 49/197/48 148/204/154
f 148/204/154 49/197/48 146/202/152
f 49/197/48 62/207/61 146/202/152
f 146/202/152 62/207/61 145/200/151
f 62/207/61 50/199/49 145/200/151
f 78/208/79 115/209/120 147/203/153
f 147/203/153 115/209/120 149/205/155
f 115/209/120 48/206/47 149/205/155
f 62/207/61 48/206/47 50/199/49
f 82/201/83 78/208/79 147/203/153
usemtl SCIZOM3_Arm_R1.bmp
f 150/210/156 151/211/157 152/212/158
f 152/212/158 151/211/157 153/213/159
f 151/211/157 154/214/160 153/213/159
f 153/213/159 154/214/160 155/215/161
f 154/214/160 156/216/162 155/215/161
f 155/215/161 156/216/162 157/217/163
f 156/216/162 158/218/164 157/217/163
f 157/217/163 158/218/164 159/219/165
f 158/218/164 150/210/156 159/219/165
f 159/219/165 150/210/156 160/220/166
f 150/210/156 152/212/158 160/220/166
f 160/220/166 152/212/158 161/221/167
f 152/212/158 153/213/159 161/221/167
f 161/221/167 153/213/159 162/222/168
f 153/213/159 155/215/161 162/222/168
f 162/222/168 155/215/161 163/223/169
f 155/215/161 157/217/163 163/223/169
f 163/223/169 157/217/163 164/224/170
f 157/217/163 165/225/171 164/224/170
f 164/224/170 165/225/171 166/226/172
f 165/225/171 167/227/173 166/226/172
f 166/226/172 167/227/173 168/228/174
f 167/227/173 169/228/175 168/228/174
f 168/228/174 169/228/175 170/229/176
f 169/228/175 171/230/167 170/229/176
f 170/229/176 171/230/167 162/222/168
f 171/230/167 161/221/167 162/222/168
f 151/211/157 172/231/161 154/214/160
f 154/214/160 172/231/161 156/216/162
f 172/231/161 173/232/177 156/216/162
f 156/216/162 173/232/177 158/218/164
f 173/232/177 174/233/178 158/218/164
f 158/218/164 174/233/178 175/234/179
f 174/233/178 151/211/157 175/234/179
f 175/234/179 151/211/157 150/210/156
f 160/220/166 165/225/171 159/219/165
f 160/220/166 167/227/173 165/225/171
f 160/220/166 169/228/175 167/227/173
f 160/220/166 171/230/167 169/228/175
f 160/220/166 161/221/167 171/230/167
f 174/233/178 176/235/180 151/211/157
f 151/211/157 176/235/180 172/231/161
f 176/235/180 177/236/181 172/231/161
f 172/231/161 177/236/181 173/232/177
f 162/222/168 163/223/169 170/229/176
f 170/229/176 163/223/169 166/226/172
f 163/223/169 164/224/170 166/226/172
f 158/218/164 175/234/179 150/210/156
f 170/229/176 166/226/172 168/228/174
f 165/225/171 157/217/163 159/219/165
usemtl ZOM3_Claw1.bmp
f 178/237/182 179/238/183 180/239/184
f 180/239/184 179/238/183 181/240/185
f 179/238/183 182/241/186 181/240/185
f 181/240/185 182/241/186 183/242/187
f 182/241/186 184/243/188 183/242/187
f 183/242/187 184/243/188 185/244/189
f 184/243/188 186/245/190 185/244/189
f 185/244/189 186/245/190 187/246/191
f 186/245/190 188/247/192 187/246/191
f 187/246/191 188/247/192 189/248/193
f 188/247/192 190/249/194 189/248/193
f 189/248/193 190/249/194 185/244/189
f 190/249/194 191/250/195 185/244/189
f 185/244/189 191/250/195 192/251/196
f 191/250/195 193/252/197 192/251/196
f 192/251/196 193/252/197 194/253/198
f 193/252/197 195/254/199 194/253/198
f 194/253/198 195/254/199 196/255/200
f 195/254/199 197/256/201 196/255/200
f 196/255/200 197/256/201 192/251/196
f 197/256/201 198/257/202 192/251/196
f 192/251/196 198/257/202 185/244/189
f 198/257/202 199/258/203 185/244/189
f 185/244/189 199/258/203 183/242/187
f 199/258/203 200/259/204 183/242/187
f 183/242/187 200/259/204 201/260/205
f 200/259/204 202/261/206 201/260/205
f 201/260/205 202/261/206 180/239/184
f 202/261/206 203/262/207 180/239/184
f 180/239/184 203/262/207 178/237/182
f 203/262/207 204/263/208 178/237/182
f 178/237/182 204/263/208 205/264/209
f 204/263/208 206/265/210 205/264/209
f 205/264/209 206/265/210 207/266/211
f 206/265/210 208/267/212 207/266/211
f 207/266/211 208/267/212 205/264/209
f 208/267/212 178/237/182 205/264/209
f 209/250/213 210/268/214 211/269/215
f 211/269/215 210/268/214 212/270/216
f 210/268/214 213/258/217 212/270/216
f 212/270/216 213/258/217 214/271/218
f 213/258/217 215/272/219 214/271/218
f 214/271/218 215/272/219 216/273/220
f 215/272/219 217/274/221 216/273/220
f 216/273/220 217/274/221 218/275/222
f 217/274/221 219/276/223 218/275/222
f 218/275/222 219/276/223 220/277/224
f 219/276/223 221/277/225 220/277/224
f 220/277/224 221/277/225 222/278/226
f 221/277/225 223/279/227 222/278/226
f 222/278/226 223/279/227 224/280/228
f 223/279/227 225/281/229 224/280/228
f 224/280/228 225/281/229 212/270/216
f 225/281/229 226/282/230 212/270/216
f 212/270/216 226/282/230 227/283/231
f 226/282/230 209/250/213 227/283/231
f 227/283/231 209/250/213 228/284/232
f 209/250/213 211/269/215 228/284/232
f 228/284/232 211/269/215 229/285/233
f 211/269/215 230/286/234 229/285/233
f 229/285/233 230/286/234 231/287/235
f 230/286/234 232/288/236 231/287/235
f 231/287/235 232/288/236 233/289/237
f 232/288/236 234/290/238 233/289/237
f 233/289/237 234/290/238 231/287/235
f 234/290/238 235/291/239 231/287/235
f 231/287/235 235/291/239 229/285/233
f 235/291/239 236/254/240 229/285/233
f 229/285/233 236/254/240 228/284/232
f 236/254/240 227/283/231 228/284/232
f 237/292/241 238/293/242 239/294/243
f 239/294/243 238/293/242 240/295/244
f 238/293/242 241/296/245 240/295/244
f 240/295/244 241/296/245 242/297/246
f 241/296/245 243/298/247 242/297/246
f 242/297/246 243/298/247 244/299/248
f 243/298/247 245/300/249 244/299/248
f 244/299/248 245/300/249 246/301/250
f 245/300/249 247/302/251 246/301/250
f 246/301/250 247/302/251 198/257/202
f 247/302/251 242/297/246 198/257/202
f 198/257/202 242/297/246 248/271/252
f 242/297/246 249/280/253 248/271/252
f 248/271/252 249/280/253 250/303/254
f 249/280/253 251/304/255 250/303/254
f 250/303/254 251/304/255 252/275/256
f 251/304/255 253/277/257 252/275/256
f 252/275/256 253/277/257 254/305/258
f 253/277/257 255/306/259 254/305/258
f 254/305/258 255/306/259 256/307/260
f 255/306/259 257/279/261 256/307/260
f 256/307/260 257/279/261 258/272/262
f 257/279/261 199/258/203 258/272/262
f 258/272/262 199/258/203 248/271/252
f 199/258/203 198/257/202 248/271/252
f 259/308/263 260/309/264 261/310/265
f 261/310/265 260/309/264 262/311/266
f 260/309/264 263/312/267 262/311/266
f 262/311/266 263/312/267 261/310/265
f 263/312/267 264/313/268 261/310/265
f 261/310/265 264/313/268 259/308/263
f 264/313/268 265/314/269 259/308/263
f 259/308/263 265/314/269 266/315/270
f 265/314/269 226/282/230 266/315/270
f 266/315/270 226/282/230 267/316/271
f 226/282/230 268/317/272 267/316/271
f 267/316/271 268/317/272 269/318/273
f 268/317/272 270/319/274 269/318/273
f 269/318/273 270/319/274 271/320/275
f 270/319/274 272/321/276 271/320/275
f 271/320/275 272/321/276 273/263/277
f 272/321/276 274/237/278 273/263/277
f 273/263/277 274/237/278 275/322/279
f 274/237/278 276/323/280 275/322/279
f 275/322/279 276/323/280 277/324/281
f 276/323/280 278/325/282 277/324/281
f 277/324/281 278/325/282 275/322/279
f 278/325/282 273/263/277 275/322/279
f 174/326/178 279/327/283 176/328/180
f 176/328/180 279/327/283 177/329/181
f 279/327/283 280/330/284 177/329/181
f 177/329/181 280/330/284 173/331/177
f 280/330/284 281/332/285 173/331/177
f 173/331/177 281/332/285 282/333/286
f 281/332/285 283/334/287 282/333/286
f 282/333/286 283/334/287 284/335/288
f 283/334/287 285/336/289 284/335/288
f 284/335/288 285/336/289 286/337/290
f 285/336/289 212/270/216 286/337/290
f 286/337/290 212/270/216 281/332/285
f 212/270/216 214/271/218 281/332/285
f 281/332/285 214/271/218 224/280/228
f 214/271/218 216/273/220 224/280/228
f 224/280/228 216/273/220 222/278/226
f 216/273/220 218/275/222 222/278/226
f 222/278/226 218/275/222 220/277/224
f 223/279/227 213/258/217 225/281/229
f 225/281/229 213/258/217 268/317/272
f 213/258/217 287/338/291 268/317/272
f 268/317/272 287/338/291 288/260/292
f 287/338/291 289/339/293 288/260/292
f 288/260/292 289/339/293 272/321/276
f 289/339/293 290/340/294 272/321/276
f 272/321/276 290/340/294 274/237/278
f 290/340/294 276/323/280 274/237/278
f 291/341/295 198/257/202 197/256/201
f 291/341/295 292/281/296 198/257/202
f 291/341/295 200/259/204 292/281/296
f 291/341/295 184/243/188 200/259/204
f 291/341/295 186/245/190 184/243/188
f 291/341/295 188/247/192 186/245/190
f 291/341/295 190/249/194 188/247/192
f 291/341/295 191/250/195 190/249/194
f 291/341/295 197/256/201 191/250/195
f 293/342/297 294/312/298 189/248/193
f 189/248/193 294/312/298 295/310/299
f 294/312/298 296/343/300 295/310/299
f 295/310/299 296/343/300 297/344/301
f 296/343/300 294/312/298 297/344/301
f 297/344/301 294/312/298 187/246/191
f 294/312/298 293/342/297 187/246/191
f 187/246/191 293/342/297 185/244/189
f 293/342/297 189/248/193 185/244/189
f 210/268/214 287/338/291 213/258/217
f 210/268/214 267/316/271 287/338/291
f 210/268/214 266/315/270 267/316/271
f 210/268/214 259/308/263 266/315/270
f 210/268/214 298/345/302 259/308/263
f 210/268/214 264/313/268 298/345/302
f 210/268/214 299/346/303 264/313/268
f 210/268/214 209/250/213 299/346/303
f 194/253/198 300/347/304 192/251/196
f 192/251/196 300/347/304 196/255/200
f 300/347/304 301/348/305 196/255/200
f 196/255/200 301/348/305 302/349/306
f 301/348/305 303/350/307 302/349/306
f 302/349/306 303/350/307 304/287/308
f 303/350/307 301/348/305 304/287/308
f 304/287/308 301/348/305 300/347/304
f 173/331/177 282/333/286 174/326/178
f 174/326/178 282/333/286 279/327/283
f 282/333/286 284/335/288 279/327/283
f 279/327/283 284/335/288 280/330/284
f 284/335/288 286/337/290 280/330/284
f 280/330/284 286/337/290 281/332/285
f 208/267/212 206/265/210 178/237/182
f 178/237/182 206/265/210 179/238/183
f 206/265/210 204/263/208 179/238/183
f 179/238/183 204/263/208 182/241/186
f 204/263/208 203/262/207 182/241/186
f 182/241/186 203/262/207 202/261/206
f 249/280/253 257/279/261 251/304/255
f 249/280/253 292/281/296 257/279/261
f 249/280/253 198/257/202 292/281/296
f 249/280/253 246/301/250 198/257/202
f 249/280/253 244/299/248 246/301/250
f 249/280/253 242/297/246 244/299/248
f 227/283/231 305/351/309 211/269/215
f 211/269/215 305/351/309 230/286/234
f 305/351/309 235/291/239 230/286/234
f 230/286/234 235/291/239 232/288/236
f 235/291/239 234/290/238 232/288/236
f 269/318/273 287/338/291 267/316/271
f 269/318/273 289/339/293 287/338/291
f 269/318/273 290/340/294 289/339/293
f 269/318/273 273/263/277 290/340/294
f 269/318/273 271/320/275 273/263/277
f 247/302/251 245/300/249 240/295/244
f 240/295/244 245/300/249 239/294/243
f 245/300/249 243/298/247 239/294/243
f 239/294/243 243/298/247 306/326/310
f 243/298/247 241/296/245 306/326/310
f 213/258/217 223/279/227 215/272/219
f 215/272/219 223/279/227 217/274/221
f 223/279/227 221/277/225 217/274/221
f 217/274/221 221/277/225 219/276/223
f 248/271/252 250/303/254 258/272/262
f 258/272/262 250/303/254 256/307/260
f 250/303/254 252/275/256 256/307/260
f 256/307/260 252/275/256 254/305/258
f 281/332/285 224/280/228 283/334/287
f 283/334/287 224/280/228 285/336/289
f 224/280/228 212/270/216 285/336/289
f 264/313/268 299/346/303 265/314/269
f 265/314/269 299/346/303 226/282/230
f 299/346/303 209/250/213 226/282/230
f 264/313/268 263/312/267 298/345/302
f 298/345/302 263/312/267 259/308/263
f 263/312/267 260/309/264 259/308/263
f 300/347/304 194/253/198 304/287/308
f 304/287/308 194/253/198 302/349/306
f 194/253/198 196/255/200 302/349/306
f 227/283/231 236/254/240 305/351/309
f 305/351/309 236/254/240 235/291/239
f 278/325/282 276/323/280 273/263/277
f 273/263/277 276/323/280 290/340/294
f 268/317/272 288/260/292 270/319/274
f 270/319/274 288/260/292 272/321/276
f 200/259/204 199/258/203 292/281/296
f 292/281/296 199/258/203 257/279/261
f 195/254/199 193/252/197 197/256/201
f 197/256/201 193/252/197 191/250/195
f 189/248/193 295/310/299 187/246/191
f 187/246/191 295/310/299 297/344/301
f 180/239/184 181/240/185 201/260/205
f 201/260/205 181/240/185 183/242/187
f 202/261/206 200/259/204 182/241/186
f 182/241/186 200/259/204 184/243/188
f 253/277/257 251/304/255 255/306/259
f 255/306/259 251/304/255 257/279/261
f 212/270/216 227/283/231 211/269/215
f 268/317/272 226/282/230 225/281/229
f 306/326/310 237/292/241 239/294/243
f 240/295/244 242/297/246 247/302/251
usemtl SCIZOM3_Arm_L1.bmp
f 306/352/310 241/353/245 307/354/311
f 307/354/311 241/353/245 308/355/312
f 241/353/245 309/356/313 308/355/312
f 308/355/312 309/356/313 310/357/314
f 309/356/313 311/358/315 310/357/314
f 310/357/314 311/358/315 312/359/316
f 311/358/315 313/360/317 312/359/316
f 312/359/316 313/360/317 314/361/318
f 313/360/317 315/362/319 314/361/318
f 314/361/318 315/362/319 316/363/320
f 315/362/319 317/364/321 316/363/320
f 316/363/320 317/364/321 318/365/322
f 317/364/321 319/366/323 318/365/322
f 318/365/322 319/366/323 320/367/324
f 319/366/323 317/364/321 320/367/324
f 320/367/324 317/364/321 321/368/325
f 317/364/321 315/362/319 321/368/325
f 321/368/325 315/362/319 322/369/326
f 315/362/319 323/370/327 322/369/326
f 322/369/326 323/370/327 324/371/328
f 323/370/327 325/372/329 324/371/328
f 324/371/328 325/372/329 307/354/311
f 325/372/329 326/373/330 307/354/311
f 307/354/311 326/373/330 306/352/310
f 326/373/330 311/358/315 306/352/310
f 306/352/310 311/358/315 237/374/241
f 311/358/315 309/356/313 237/374/241
f 237/374/241 309/356/313 238/375/242
f 309/356/313 241/353/245 238/375/242
f 314/361/318 327/376/316 312/359/316
f 312/359/316 327/376/316 328/377/331
f 327/376/316 318/365/322 328/377/331
f 328/377/331 318/365/322 329/378/332
f 318/365/322 320/367/324 329/378/332
f 329/378/332 320/367/324 330/379/333
f 320/367/324 322/369/326 330/379/333
f 330/379/333 322/369/326 324/371/328
f 331/380/334 326/373/330 325/372/329
f 331/380/334 311/358/315 326/373/330
f 331/380/334 313/360/317 311/358/315
f 331/380/334 315/362/319 313/360/317
f 331/380/334 323/370/327 315/362/319
f 331/380/334 325/372/329 323/370/327
f 308/355/312 310/357/314 307/354/311
f 307/354/311 310/357/314 324/371/328
f 310/357/314 328/377/331 324/371/328
f 324/371/328 328/377/331 330/379/333
f 328/377/331 329/378/332 330/379/333
f 314/361/318 316/363/320 327/376/316
f 327/376/316 316/363/320 318/365/322
f 312/359/316 328/377/331 310/357/314
f 320/367/324 321/368/325 322/369/326
usemtl SCIZOM3_LegFrnt2.bmp
f 332/381/335 333/382/336 334/383/337
f 334/383/337 333/382/336 335/384/338
f 333/382/336 336/385/339 335/384/338
f 335/384/338 336/385/339 337/386/340
f 336/385/339 338/387/341 337/386/340
f 337/386/340 338/387/341 339/388/342
f 338/387/341 340/389/343 339/388/342
f 339/388/342 340/389/343 341/390/344
f 340/389/343 342/391/345 341/390/344
f 341/390/344 342/391/345 343/392/346
f 344/393/347 336/385/339 345/394/348
f 344/393/347 338/387/341 336/385/339
f 344/393/347 340/389/343 338/387/341
f 344/393/347 346/395/349 340/389/343
f 344/393/347 345/394/348 346/395/349
f 335/384/338 337/386/340 347/396/350
f 347/396/350 337/386/340 348/397/351
f 337/386/340 339/388/342 348/397/351
f 347/396/350 334/383/337 335/384/338
f 336/385/339 333/382/336 345/394/348
f 349/207/352 346/395/349 345/394/348
f 346/395/349 342/391/345 340/389/343
usemtl Sci3(Shoe).bmp
f 350/398/353 351/399/354 352/400/355
f 352/400/355 351/399/354 353/401/356
f 351/399/354 354/402/357 353/401/356
f 353/401/356 354/402/357 355/403/358
f 354/402/357 356/402/359 355/403/358
f 355/403/358 356/402/359 357/404/360
f 356/402/359 358/405/361 357/404/360
f 357/404/360 358/405/361 359/406/362
f 358/405/361 360/407/363 359/406/362
f 359/406/362 360/407/363 353/401/356
f 360/407/363 361/408/364 353/401/356
f 353/401/356 361/408/364 352/400/355
f 361/408/364 358/405/361 352/400/355
f 352/400/355 358/405/361 350/398/353
f 358/405/361 362/409/365 350/398/353
f 350/398/353 362/409/365 363/410/366
f 362/409/365 364/411/367 363/410/366
f 363/410/366 364/411/367 365/412/368
f 364/411/367 343/412/346 365/412/368
f 365/412/368 343/412/346 363/410/366
f 343/412/346 350/398/353 363/410/366
f 366/402/369 367/413/370 368/402/371
f 368/402/371 367/413/370 369/414/372
f 367/413/370 366/402/369 369/414/372
f 369/414/372 366/402/369 370/415/373
f 366/402/369 371/405/374 370/415/373
f 370/415/373 371/405/374 372/398/375
f 371/405/374 373/400/376 372/398/375
f 372/398/375 373/400/376 374/399/377
f 373/400/376 375/401/378 374/399/377
f 374/399/377 375/401/378 368/402/371
f 375/401/378 376/403/379 368/402/371
f 368/402/371 376/403/379 366/402/369
f 376/403/379 377/404/380 366/402/369
f 366/402/369 377/404/380 371/405/374
f 377/404/380 378/406/381 371/405/374
f 371/405/374 378/406/381 379/407/382
f 378/406/381 375/401/378 379/407/382
f 379/407/382 375/401/378 380/408/383
f 375/401/378 373/400/376 380/408/383
f 380/408/383 373/400/376 371/405/374
f 354/402/357 381/413/384 356/402/359
f 356/402/359 381/413/384 382/414/385
f 381/413/384 354/402/357 382/414/385
f 382/414/385 354/402/357 364/411/367
f 354/402/357 383/416/386 364/411/367
f 364/411/367 383/416/386 349/416/352
f 383/416/386 351/399/354 349/416/352
f 349/416/352 351/399/354 346/417/349
f 351/399/354 342/418/345 346/417/349
f 384/411/387 385/419/388 386/420/389
f 384/411/387 387/412/390 385/419/388
f 384/411/387 388/410/391 387/412/390
f 384/411/387 370/415/373 388/410/391
f 384/411/387 369/414/372 370/415/373
f 384/411/387 368/402/371 369/414/372
f 384/411/387 389/416/392 368/402/371
f 384/411/387 386/420/389 389/416/392
f 374/399/377 390/421/393 372/398/375
f 374/399/377 391/422/394 390/421/393
f 374/399/377 386/420/389 391/422/394
f 374/399/377 389/416/392 386/420/389
f 374/399/377 368/402/371 389/416/392
f 364/411/367 362/409/365 382/414/385
f 382/414/385 362/409/365 356/402/359
f 362/409/365 358/405/361 356/402/359
f 370/415/373 372/398/375 388/410/391
f 388/410/391 372/398/375 387/412/390
f 372/398/375 390/421/393 387/412/390
f 357/404/360 359/406/362 355/403/358
f 355/403/358 359/406/362 353/401/356
f 349/416/352 392/423/395 364/411/367
f 364/411/367 392/423/395 343/412/346
f 351/399/354 350/398/353 342/418/345
f 342/418/345 350/398/353 343/412/346
f 377/404/380 376/403/379 378/406/381
f 378/406/381 376/403/379 375/401/378
f 360/407/363 358/405/361 361/408/364
f 383/416/386 354/402/357 351/399/354
f 379/407/382 380/408/383 371/405/374
usemtl SCIZOM3_Pelvis.bmp
f 348/424/351 393/425/396 347/426/350
f 347/426/350 393/425/396 394/427/397
f 393/425/396 395/428/398 394/427/397
f 394/427/397 395/428/398 396/429/399
f 395/428/398 397/430/400 396/429/399
f 396/429/399 397/430/400 398/431/401
f 397/430/400 399/432/402 398/431/401
f 398/431/401 399/432/402 400/433/403
f 399/432/402 401/434/404 400/433/403
f 1/435/1 57/436/56 393/425/396
f 393/425/396 57/436/56 395/428/398
f 57/436/56 59/437/58 395/428/398
f 395/428/398 59/437/58 397/430/400
f 59/437/58 51/438/50 397/430/400
f 397/430/400 51/438/50 402/439/405
f 51/438/50 20/440/19 402/439/405
f 334/441/337 396/429/399 332/442/335
f 332/442/335 396/429/399 403/443/406
f 396/429/399 398/431/401 403/443/406
f 403/443/406 398/431/401 404/18/407
f 398/431/401 400/433/403 404/18/407
f 397/430/400 402/439/405 399/432/402
f 399/432/402 402/439/405 401/434/404
f 402/439/405 405/444/408 401/434/404
f 347/426/350 394/427/397 334/441/337
f 334/441/337 394/427/397 396/429/399
f 403/445/406 406/446/409 407/447/410
usemtl SCIZOM3_Back2.bmp
f 348/448/351 408/449/411 393/450/396
f 393/450/396 408/449/411 409/451/412
f 408/449/411 410/452/413 409/451/412
f 409/451/412 410/452/413 18/453/17
f 410/452/413 411/454/414 18/453/17
f 18/453/17 411/454/414 412/455/415
f 411/454/414 413/456/416 412/455/415
f 412/455/415 413/456/416 405/457/408
f 413/456/416 414/458/417 405/457/408
f 414/458/417 411/454/414 406/459/409
f 406/459/409 411/454/414 407/460/410
f 411/454/414 410/452/413 407/460/410
f 407/460/410 410/452/413 415/461/418
f 410/452/413 408/449/411 415/461/418
f 415/461/418 408/449/411 348/448/351
f 412/455/415 21/462/20 18/453/17
f 412/455/415 20/463/19 21/462/20
f 412/455/415 402/464/405 20/463/19
f 412/455/415 405/457/408 402/464/405
f 393/450/396 409/451/412 1/465/1
f 1/465/1 409/451/412 23/466/22
f 409/451/412 18/453/17 23/466/22
f 414/458/417 413/456/416 411/454/414
usemtl SCIZOM3_LegBack1.bmp
f 387/467/390 416/468/419 385/469/388
f 385/469/388 416/468/419 417/470/420
f 416/468/419 418/471/421 417/470/420
f 417/470/420 418/471/421 419/472/422
f 418/471/421 414/473/417 419/472/422
f 419/472/422 414/473/417 420/474/423
f 414/473/417 406/475/409 420/474/423
f 420/474/423 406/475/409 404/476/407
f 406/475/409 403/477/406 404/476/407
f 403/478/406 407/479/410 332/480/335
f 332/480/335 407/479/410 421/481/424
f 407/479/410 415/482/418 421/481/424
f 421/481/424 415/482/418 422/483/425
f 415/482/418 423/484/426 422/483/425
f 422/483/425 423/484/426 424/485/427
f 423/484/426 425/486/428 424/485/427
f 424/485/427 425/486/428 392/487/395
f 425/486/428 343/488/346 392/487/395
f 421/481/424 422/483/425 332/480/335
f 332/480/335 422/483/425 333/489/336
f 422/483/425 424/485/427 333/489/336
f 333/489/336 424/485/427 345/490/348
f 424/485/427 349/491/352 345/490/348
f 348/492/351 339/493/342 415/482/418
f 415/482/418 339/493/342 423/484/426
f 339/493/342 341/494/344 423/484/426
f 423/484/426 341/494/344 425/486/428
f 341/494/344 343/488/346 425/486/428
f 386/495/389 417/470/420 426/496/429
f 426/496/429 417/470/420 427/497/430
f 417/470/420 419/472/422 427/497/430
f 427/497/430 419/472/422 404/476/407
f 419/472/422 420/474/423 404/476/407
f 387/467/390 428/498/431 416/468/419
f 416/468/419 428/498/431 418/471/421
f 428/498/431 429/499/432 418/471/421
f 418/471/421 429/499/432 414/473/417
f 429/499/432 405/500/408 414/473/417
f 392/487/395 349/491/352 424/485/427
f 385/469/388 417/470/420 386/495/389
usemtl SCIZOM3_LegFrnt1.bmp
f 401/366/404 430/501/433 400/502/403
f 400/502/403 430/501/433 427/503/430
f 430/501/433 431/504/434 427/503/430
f 427/503/430 431/504/434 426/505/429
f 431/504/434 432/506/435 426/505/429
f 426/505/429 432/506/435 391/507/394
f 432/506/435 433/508/436 391/507/394
f 391/507/394 433/508/436 390/509/393
f 433/508/436 428/510/431 390/509/393
f 390/509/393 428/510/431 387/488/390
f 434/511/437 429/512/432 435/513/438
f 434/511/437 405/514/408 429/512/432
f 434/511/437 401/366/404 405/514/408
f 434/511/437 430/501/433 401/366/404
f 434/511/437 431/504/434 430/501/433
f 434/511/437 435/513/438 431/504/434
f 431/504/434 435/513/438 432/506/435
f 432/506/435 435/513/438 433/508/436
f 435/513/438 429/512/432 433/508/436
f 433/508/436 429/512/432 428/510/431
f 400/502/403 427/503/430 404/515/407
f 386/516/389 426/505/429 391/507/394
